<?xml version="1.0" encoding="UTF-8" standalone="no"?>
<svg
   xmlns:dc="http://purl.org/dc/elements/1.1/"
   xmlns:cc="http://creativecommons.org/ns#"
   xmlns:rdf="http://www.w3.org/1999/02/22-rdf-syntax-ns#"
   xmlns:svg="http://www.w3.org/2000/svg"
   xmlns="http://www.w3.org/2000/svg"
   xmlns:sodipodi="http://sodipodi.sourceforge.net/DTD/sodipodi-0.dtd"
   xmlns:inkscape="http://www.inkscape.org/namespaces/inkscape"
   viewBox="0 0 512 512"
   version="1.1"
   id="svg4"
   sodipodi:docname="f001-music.svg"
   inkscape:version="0.92.4 (5da689c313, 2019-01-14)">
  <metadata
     id="metadata10">
    <rdf:RDF>
      <cc:Work
         rdf:about="">
        <dc:format>image/svg+xml</dc:format>
        <dc:type
           rdf:resource="http://purl.org/dc/dcmitype/StillImage" />
      </cc:Work>
    </rdf:RDF>
  </metadata>
  <defs
     id="defs8" />
  <sodipodi:namedview
     pagecolor="#ffffff"
     bordercolor="#666666"
     borderopacity="1"
     objecttolerance="10"
     gridtolerance="10"
     guidetolerance="10"
     inkscape:pageopacity="0"
     inkscape:pageshadow="2"
     inkscape:window-width="763"
     inkscape:window-height="480"
     id="namedview6"
     showgrid="false"
     inkscape:zoom="1.2593202"
     inkscape:cx="284.68716"
     inkscape:cy="304.17033"
     inkscape:window-x="247"
     inkscape:window-y="174"
     inkscape:window-maximized="0"
     inkscape:current-layer="svg4" />
  <path
     d="m 398.28964,154.62664 -157.04028,49.59167 c -6.8705,2.16963 -11.57139,8.52355 -11.57139,15.75568 v 136.68703 c -7.28376,-2.78953 -15.75567,-4.44259 -24.79582,-4.44259 -27.37874,0 -49.59167,14.82585 -49.59167,33.06111 0,18.23527 22.21293,33.06112 49.59167,33.06112 27.37873,0 49.59166,-14.82585 49.59166,-33.06112 V 267.75763 l 140.50972,-44.3742 v 100.21648 c -7.28377,-2.78953 -15.75567,-4.44258 -24.79583,-4.44258 -27.37873,0 -49.59166,14.82583 -49.59166,33.0611 0,18.23527 22.21293,33.06111 49.59166,33.06111 27.37874,0 49.59167,-14.82584 49.59167,-33.06111 v -181.8361 c 0,-11.20979 -10.89984,-19.11346 -21.48973,-15.75569 z"
     id="path2"
     inkscape:connector-curvature="0"
     style="stroke-width:0.51657987" />
</svg>
