<?xml version="1.0" encoding="UTF-8" standalone="no"?>
<svg
   xmlns:dc="http://purl.org/dc/elements/1.1/"
   xmlns:cc="http://creativecommons.org/ns#"
   xmlns:rdf="http://www.w3.org/1999/02/22-rdf-syntax-ns#"
   xmlns:svg="http://www.w3.org/2000/svg"
   xmlns="http://www.w3.org/2000/svg"
   xmlns:sodipodi="http://sodipodi.sourceforge.net/DTD/sodipodi-0.dtd"
   xmlns:inkscape="http://www.inkscape.org/namespaces/inkscape"
   viewBox="0 0 512 512"
   version="1.1"
   id="svg4"
   sodipodi:docname="f013-cog.svg"
   inkscape:version="0.92.4 (5da689c313, 2019-01-14)">
  <metadata
     id="metadata10">
    <rdf:RDF>
      <cc:Work
         rdf:about="">
        <dc:format>image/svg+xml</dc:format>
        <dc:type
           rdf:resource="http://purl.org/dc/dcmitype/StillImage" />
      </cc:Work>
    </rdf:RDF>
  </metadata>
  <defs
     id="defs8" />
  <sodipodi:namedview
     pagecolor="#ffffff"
     bordercolor="#666666"
     borderopacity="1"
     objecttolerance="10"
     gridtolerance="10"
     guidetolerance="10"
     inkscape:pageopacity="0"
     inkscape:pageshadow="2"
     inkscape:window-width="763"
     inkscape:window-height="480"
     id="namedview6"
     showgrid="false"
     inkscape:zoom="1.3901299"
     inkscape:cx="173.00486"
     inkscape:cy="338.43833"
     inkscape:window-x="0"
     inkscape:window-y="24"
     inkscape:window-maximized="0"
     inkscape:current-layer="svg4" />
  <path
     d="m 383.67406,290.00935 20.90074,12.06441 c 2.38698,1.37766 3.4949,4.22665 2.67733,6.85887 -5.42922,17.48038 -14.69859,33.27266 -26.82186,46.38909 a 5.8931695,5.8931695 0 0 1 -7.27427,1.10546 L 352.27096,344.36471 A 93.957696,93.957696 0 0 1 322.4721,361.594 v 24.12099 a 5.8902269,5.8902269 0 0 1 -4.59889,5.74702 c -17.14394,3.84998 -35.55666,4.0491 -53.56575,0.004 -2.69254,-0.60472 -4.61164,-2.98974 -4.61164,-5.74946 v -24.12197 a 93.946912,93.946912 0 0 1 -29.79886,-17.22929 l -20.88506,12.06246 a 5.8931695,5.8931695 0 0 1 -7.27425,-1.10546 c -12.12277,-13.11643 -21.39265,-28.9087 -26.82186,-46.3891 -0.81758,-2.63171 0.29033,-5.48071 2.67733,-6.85886 l 20.90123,-12.06441 a 94.891022,94.891022 0 0 1 0,-34.42865 l -20.90073,-12.06442 c -2.387,-1.37766 -3.49491,-4.22663 -2.67735,-6.85885 5.42923,-17.48039 14.69861,-33.27267 26.82187,-46.38909 a 5.8931695,5.8931695 0 0 1 7.27426,-1.10546 l 20.88505,12.06246 a 93.957696,93.957696 0 0 1 29.79886,-17.22929 v -24.12181 a 5.8902269,5.8902269 0 0 1 4.5989,-5.74702 c 17.14394,-3.84999 35.55665,-4.0491 53.56574,-0.004 2.69254,0.60472 4.61164,2.98975 4.61164,5.74947 v 24.12197 a 93.946912,93.946912 0 0 1 29.79886,17.22929 l 20.88506,-12.06245 a 5.8931695,5.8931695 0 0 1 7.27425,1.10546 c 12.12278,13.11641 21.39265,28.9087 26.82186,46.38908 0.81757,2.63173 -0.29034,5.4807 -2.67733,6.85886 l -20.90123,12.06442 a 94.89347,94.89347 0 0 1 0,34.42914 z m -53.35437,-17.21457 c 0,-21.63445 -17.60104,-39.23549 -39.23548,-39.23549 -21.63445,0 -39.23549,17.60104 -39.23549,39.23549 0,21.63445 17.60104,39.23548 39.23549,39.23548 21.63444,0 39.23548,-17.60103 39.23548,-39.23548 z"
     id="path2"
     inkscape:connector-curvature="0"
     style="stroke-width:0.49044356" />
</svg>
