<?xml version="1.0" encoding="UTF-8" standalone="no"?>
<svg
   xmlns:dc="http://purl.org/dc/elements/1.1/"
   xmlns:cc="http://creativecommons.org/ns#"
   xmlns:rdf="http://www.w3.org/1999/02/22-rdf-syntax-ns#"
   xmlns:svg="http://www.w3.org/2000/svg"
   xmlns="http://www.w3.org/2000/svg"
   xmlns:sodipodi="http://sodipodi.sourceforge.net/DTD/sodipodi-0.dtd"
   xmlns:inkscape="http://www.inkscape.org/namespaces/inkscape"
   viewBox="0 0 448 512"
   version="1.1"
   id="svg4"
   sodipodi:docname="f02d-book.svg"
   inkscape:version="0.92.3 (2405546, 2018-03-11)">
  <metadata
     id="metadata10">
    <rdf:RDF>
      <cc:Work
         rdf:about="">
        <dc:format>image/svg+xml</dc:format>
        <dc:type
           rdf:resource="http://purl.org/dc/dcmitype/StillImage" />
      </cc:Work>
    </rdf:RDF>
  </metadata>
  <defs
     id="defs8" />
  <sodipodi:namedview
     pagecolor="#ffffff"
     bordercolor="#666666"
     borderopacity="1"
     objecttolerance="10"
     gridtolerance="10"
     guidetolerance="10"
     inkscape:pageopacity="0"
     inkscape:pageshadow="2"
     inkscape:window-width="640"
     inkscape:window-height="480"
     id="namedview6"
     showgrid="false"
     inkscape:zoom="0.94126988"
     inkscape:cx="149.82343"
     inkscape:cy="334.50469"
     inkscape:window-x="0"
     inkscape:window-y="24"
     inkscape:window-maximized="0"
     inkscape:current-layer="svg4" />
  <path
     d="M 401.29021,280.49388 V 125.95354 c 0,-6.11723 -4.92138,-11.03859 -11.03861,-11.03859 H 239.39078 c -24.3769,0 -44.15438,19.77749 -44.15438,44.15437 v 147.18129 c 0,24.37691 19.77748,44.15439 44.15438,44.15439 H 390.2516 c 6.11723,0 11.03861,-4.92138 11.03861,-11.03859 v -7.35908 c 0,-3.44955 -1.60981,-6.57715 -4.09349,-8.6009 -1.93176,-7.08309 -1.93176,-27.27453 0,-34.35763 2.48368,-1.97775 4.09349,-5.10534 4.09349,-8.55492 z M 254.10892,176.5471 c 0,-1.5178 1.24184,-2.75965 2.75963,-2.75965 h 97.50761 c 1.51781,0 2.75966,1.24185 2.75966,2.75965 v 9.19883 c 0,1.51781 -1.24185,2.75965 -2.75966,2.75965 h -97.50761 c -1.51779,0 -2.75963,-1.24184 -2.75963,-2.75965 z m 0,29.43626 c 0,-1.51781 1.24184,-2.75964 2.75963,-2.75964 h 97.50761 c 1.51781,0 2.75966,1.24183 2.75966,2.75964 v 9.19883 c 0,1.51781 -1.24185,2.75966 -2.75966,2.75966 h -97.50761 c -1.51779,0 -2.75963,-1.24185 -2.75963,-2.75966 z M 370.6581,320.96874 H 239.39078 c -8.14096,0 -14.71813,-6.57716 -14.71813,-14.71813 0,-8.09497 6.62317,-14.71813 14.71813,-14.71813 H 370.6581 c -0.87389,7.86501 -0.87389,21.57127 0,29.43626 z"
     id="path2"
     inkscape:connector-curvature="0"
     style="stroke-width:0.45994151" />
</svg>
