<?xml version="1.0" encoding="UTF-8" standalone="no"?>
<svg
   xmlns:dc="http://purl.org/dc/elements/1.1/"
   xmlns:cc="http://creativecommons.org/ns#"
   xmlns:rdf="http://www.w3.org/1999/02/22-rdf-syntax-ns#"
   xmlns:svg="http://www.w3.org/2000/svg"
   xmlns="http://www.w3.org/2000/svg"
   xmlns:sodipodi="http://sodipodi.sourceforge.net/DTD/sodipodi-0.dtd"
   xmlns:inkscape="http://www.inkscape.org/namespaces/inkscape"
   viewBox="0 0 448 512"
   version="1.1"
   id="svg4"
   sodipodi:docname="f031-font.svg"
   inkscape:version="0.92.3 (2405546, 2018-03-11)">
  <metadata
     id="metadata10">
    <rdf:RDF>
      <cc:Work
         rdf:about="">
        <dc:format>image/svg+xml</dc:format>
        <dc:type
           rdf:resource="http://purl.org/dc/dcmitype/StillImage" />
      </cc:Work>
    </rdf:RDF>
  </metadata>
  <defs
     id="defs8" />
  <sodipodi:namedview
     pagecolor="#ffffff"
     bordercolor="#666666"
     borderopacity="1"
     objecttolerance="10"
     gridtolerance="10"
     guidetolerance="10"
     inkscape:pageopacity="0"
     inkscape:pageshadow="2"
     inkscape:window-width="640"
     inkscape:window-height="465"
     id="namedview6"
     showgrid="false"
     inkscape:zoom="0.8618673"
     inkscape:cx="229.44644"
     inkscape:cy="250.55356"
     inkscape:window-x="209"
     inkscape:window-y="43"
     inkscape:window-maximized="0"
     inkscape:current-layer="svg4" />
  <path
     d="m 258.41107,299.40575 h -11.82525 l 13.09234,-39.78129 h 68.0702 l 13.09234,39.78129 h -11.51649 c -4.3518,0 -7.87924,3.52743 -7.87924,7.87923 v 15.75848 c 0,4.3518 3.52744,7.87923 7.87924,7.87923 h 66.97352 c 4.3518,0 7.87923,-3.52743 7.87923,-7.87923 v -15.75848 c 0,-4.3518 -3.52743,-7.87923 -7.87923,-7.87923 H 383.13004 L 319.22647,115.59594 a 7.8792372,7.8792372 0 0 0 -7.44242,-5.29189 h -35.83379 a 7.8792372,7.8792372 0 0 0 -7.44244,5.29189 l -63.90258,183.80981 h -13.16768 c -4.3518,0 -7.87924,3.52743 -7.87924,7.87923 v 15.75848 c 0,4.3518 3.52744,7.87923 7.87924,7.87923 h 66.97351 c 4.3518,0 7.87924,-3.52743 7.87924,-7.87923 v -15.75848 c 0,-4.3518 -3.52744,-7.87923 -7.87924,-7.87923 z m 31.69079,-133.83772 c 2.14118,-7.49315 3.25511,-13.86549 3.73574,-17.06051 0.41317,3.21128 1.44732,9.591 3.80518,17.09105 l 20.35551,61.06704 h -48.56515 z"
     id="path2"
     inkscape:connector-curvature="0"
     style="stroke-width:0.49245229" />
</svg>
