<?xml version="1.0" encoding="UTF-8" standalone="no"?>
<svg
   xmlns:dc="http://purl.org/dc/elements/1.1/"
   xmlns:cc="http://creativecommons.org/ns#"
   xmlns:rdf="http://www.w3.org/1999/02/22-rdf-syntax-ns#"
   xmlns:svg="http://www.w3.org/2000/svg"
   xmlns="http://www.w3.org/2000/svg"
   xmlns:sodipodi="http://sodipodi.sourceforge.net/DTD/sodipodi-0.dtd"
   xmlns:inkscape="http://www.inkscape.org/namespaces/inkscape"
   viewBox="0 0 576 512"
   version="1.1"
   id="svg4"
   sodipodi:docname="f07c-folder-open.svg"
   inkscape:version="0.92.3 (2405546, 2018-03-11)">
  <metadata
     id="metadata10">
    <rdf:RDF>
      <cc:Work
         rdf:about="">
        <dc:format>image/svg+xml</dc:format>
        <dc:type
           rdf:resource="http://purl.org/dc/dcmitype/StillImage" />
      </cc:Work>
    </rdf:RDF>
  </metadata>
  <defs
     id="defs8" />
  <sodipodi:namedview
     pagecolor="#ffffff"
     bordercolor="#666666"
     borderopacity="1"
     objecttolerance="10"
     gridtolerance="10"
     guidetolerance="10"
     inkscape:pageopacity="0"
     inkscape:pageshadow="2"
     inkscape:window-width="776"
     inkscape:window-height="480"
     id="namedview6"
     showgrid="false"
     inkscape:zoom="0.75999286"
     inkscape:cx="499.39088"
     inkscape:cy="278.41904"
     inkscape:window-x="152"
     inkscape:window-y="131"
     inkscape:window-maximized="0"
     inkscape:current-layer="svg4"
     inkscape:snap-global="true" />
  <path
     d="m 524.77819,245.72083 -44.28451,75.91605 a 39.131722,39.131722 0 0 1 -33.80222,19.41514 H 202.12875 c -11.3261,0 -18.383,-12.28611 -12.67622,-22.0695 l 44.28451,-75.91604 a 39.133556,39.133556 0 0 1 33.80284,-19.41514 h 244.56271 c 11.3261,0 18.38299,12.28611 12.6756,22.06949 z M 267.53988,204.08457 h 200.55947 v -29.35016 c 0,-16.20986 -13.14031,-29.35017 -29.35017,-29.35017 h -97.83389 l -39.13355,-39.13356 h -97.83389 c -16.20986,0 -29.35017,13.14031 -29.35017,29.35017 v 170.01451 l 42.23795,-72.40809 c 10.47862,-17.96351 29.90782,-29.1227 50.70425,-29.1227 z"
     id="path2"
     inkscape:connector-curvature="0"
     style="stroke-width:0.61146182" />
</svg>
