<?xml version="1.0" encoding="UTF-8" standalone="no"?>
<svg
   xmlns:dc="http://purl.org/dc/elements/1.1/"
   xmlns:cc="http://creativecommons.org/ns#"
   xmlns:rdf="http://www.w3.org/1999/02/22-rdf-syntax-ns#"
   xmlns:svg="http://www.w3.org/2000/svg"
   xmlns="http://www.w3.org/2000/svg"
   xmlns:sodipodi="http://sodipodi.sourceforge.net/DTD/sodipodi-0.dtd"
   xmlns:inkscape="http://www.inkscape.org/namespaces/inkscape"
   viewBox="0 0 512 512"
   version="1.1"
   id="svg4"
   sodipodi:docname="f084-key.svg"
   inkscape:version="0.92.3 (2405546, 2018-03-11)">
  <metadata
     id="metadata10">
    <rdf:RDF>
      <cc:Work
         rdf:about="">
        <dc:format>image/svg+xml</dc:format>
        <dc:type
           rdf:resource="http://purl.org/dc/dcmitype/StillImage" />
      </cc:Work>
    </rdf:RDF>
  </metadata>
  <defs
     id="defs8" />
  <sodipodi:namedview
     pagecolor="#ffffff"
     bordercolor="#666666"
     borderopacity="1"
     objecttolerance="10"
     gridtolerance="10"
     guidetolerance="10"
     inkscape:pageopacity="0"
     inkscape:pageshadow="2"
     inkscape:window-width="745"
     inkscape:window-height="480"
     id="namedview6"
     showgrid="false"
     inkscape:zoom="1.4384543"
     inkscape:cx="454.75691"
     inkscape:cy="314.74894"
     inkscape:window-x="0"
     inkscape:window-y="24"
     inkscape:window-maximized="0"
     inkscape:current-layer="svg4" />
  <path
     d="m 432.57648,192.97999 c 0,45.33105 -36.74816,82.07876 -82.0792,82.07876 -5.23257,0 -10.34852,-0.49527 -15.30919,-1.43125 l -11.19823,12.59822 a 11.192155,11.192155 0 0 1 -8.36554,3.75652 h -17.35929 v 18.65437 c 0,6.18159 -5.01104,11.19264 -11.19263,11.19264 h -18.65437 v 18.65434 c 0,6.18161 -5.01103,11.19264 -11.19263,11.19264 h -52.23221 c -6.18161,0 -11.19264,-5.01103 -11.19264,-11.19264 v -36.40352 c 0,-2.96838 1.17943,-5.8155 3.27805,-7.9146 l 75.45785,-75.45783 c -2.66897,-8.09322 -4.11842,-16.74091 -4.11842,-25.72813 0,-45.33105 36.74771,-82.07876 82.07877,-82.07923 45.46488,-4.6e-4 82.07968,36.61434 82.07968,82.07971 z m -82.0792,-22.38571 c 0,12.36319 10.02205,22.38523 22.38522,22.38523 12.36319,0 22.38526,-10.02204 22.38526,-22.38523 0,-12.36319 -10.02207,-22.38525 -22.38526,-22.38525 -12.36317,0 -22.38522,10.02206 -22.38522,22.38525 z"
     id="path2"
     inkscape:connector-curvature="0"
     style="stroke-width:0.46635926" />
</svg>
