<?xml version="1.0" encoding="UTF-8" standalone="no"?>
<svg
   xmlns:dc="http://purl.org/dc/elements/1.1/"
   xmlns:cc="http://creativecommons.org/ns#"
   xmlns:rdf="http://www.w3.org/1999/02/22-rdf-syntax-ns#"
   xmlns:svg="http://www.w3.org/2000/svg"
   xmlns="http://www.w3.org/2000/svg"
   xmlns:sodipodi="http://sodipodi.sourceforge.net/DTD/sodipodi-0.dtd"
   xmlns:inkscape="http://www.inkscape.org/namespaces/inkscape"
   viewBox="0 0 512 512"
   version="1.1"
   id="svg4"
   sodipodi:docname="f0ad-wrench.svg"
   inkscape:version="0.92.4 (5da689c313, 2019-01-14)">
  <metadata
     id="metadata10">
    <rdf:RDF>
      <cc:Work
         rdf:about="">
        <dc:format>image/svg+xml</dc:format>
        <dc:type
           rdf:resource="http://purl.org/dc/dcmitype/StillImage" />
      </cc:Work>
    </rdf:RDF>
  </metadata>
  <defs
     id="defs8" />
  <sodipodi:namedview
     pagecolor="#ffffff"
     bordercolor="#666666"
     borderopacity="1"
     objecttolerance="10"
     gridtolerance="10"
     guidetolerance="10"
     inkscape:pageopacity="0"
     inkscape:pageshadow="2"
     inkscape:window-width="763"
     inkscape:window-height="480"
     id="namedview6"
     showgrid="false"
     inkscape:zoom="0.56728172"
     inkscape:cx="331.53842"
     inkscape:cy="256"
     inkscape:window-x="0"
     inkscape:window-y="24"
     inkscape:window-maximized="0"
     inkscape:current-layer="svg4" />
  <path
     d="m 417.68824,196.22086 c -1.03458,-4.17064 -6.25366,-5.58395 -9.29274,-2.54488 l -34.34434,34.34435 -31.35146,-5.2237 -5.2237,-31.35146 34.34435,-34.34433 c 3.05754,-3.05756 1.5842,-8.26741 -2.61417,-9.31123 -21.8832,-5.4223 -45.97874,0.42031 -63.08164,17.51857 -18.30836,18.30837 -23.34731,44.84718 -15.72652,67.98666 l -98.55756,98.55756 c -11.54202,11.54202 -11.54202,30.25682 0,41.79886 11.54203,11.54202 30.25683,11.54202 41.79886,0 l 98.47442,-98.47442 c 23.14871,7.71777 49.63672,2.6234 68.06517,-15.80505 17.12136,-17.12136 22.95472,-41.25386 17.50933,-63.15093 z M 212.74451,363.83198 c -6.11972,0 -11.08478,-4.96505 -11.08478,-11.08478 0,-6.12434 4.96506,-11.08477 11.08478,-11.08477 6.11973,0 11.08478,4.96043 11.08478,11.08477 0,6.11973 -4.96505,11.08478 -11.08478,11.08478 z"
     id="path2"
     inkscape:connector-curvature="0"
     style="stroke-width:0.46186584" />
</svg>
