<?xml version="1.0" encoding="UTF-8" standalone="no"?>
<svg
   xmlns:dc="http://purl.org/dc/elements/1.1/"
   xmlns:cc="http://creativecommons.org/ns#"
   xmlns:rdf="http://www.w3.org/1999/02/22-rdf-syntax-ns#"
   xmlns:svg="http://www.w3.org/2000/svg"
   xmlns="http://www.w3.org/2000/svg"
   xmlns:sodipodi="http://sodipodi.sourceforge.net/DTD/sodipodi-0.dtd"
   xmlns:inkscape="http://www.inkscape.org/namespaces/inkscape"
   viewBox="0 0 384 512"
   version="1.1"
   id="svg4"
   sodipodi:docname="f126-code-branch.svg"
   inkscape:version="0.92.4 (5da689c313, 2019-01-14)">
  <metadata
     id="metadata10">
    <rdf:RDF>
      <cc:Work
         rdf:about="">
        <dc:format>image/svg+xml</dc:format>
        <dc:type
           rdf:resource="http://purl.org/dc/dcmitype/StillImage" />
      </cc:Work>
    </rdf:RDF>
  </metadata>
  <defs
     id="defs8" />
  <sodipodi:namedview
     pagecolor="#ffffff"
     bordercolor="#666666"
     borderopacity="1"
     objecttolerance="10"
     gridtolerance="10"
     guidetolerance="10"
     inkscape:pageopacity="0"
     inkscape:pageshadow="2"
     inkscape:window-width="763"
     inkscape:window-height="480"
     id="namedview6"
     showgrid="false"
     inkscape:zoom="0.81737458"
     inkscape:cx="296.20444"
     inkscape:cy="244.77619"
     inkscape:window-x="0"
     inkscape:window-y="24"
     inkscape:window-maximized="0"
     inkscape:current-layer="svg4" />
  <path
     d="m 411.99964,226.33784 c 0,-23.40358 -18.95584,-42.35942 -42.35943,-42.35942 -23.40358,0 -42.35943,18.95584 -42.35943,42.35942 0,19.27353 12.86669,35.52897 30.44585,40.66505 -0.31771,8.52483 -2.22387,15.09055 -5.82443,19.53828 -8.15418,10.16627 -26.10399,11.86065 -45.11278,13.60796 -14.9317,1.37668 -30.39289,2.85927 -43.04777,8.94844 v -76.24698 c 17.20852,-5.40081 29.6516,-21.44445 29.6516,-40.40028 0,-23.40359 -18.95584,-42.35944 -42.35942,-42.35944 -23.40359,0 -42.35943,18.95585 -42.35943,42.35944 0,18.95583 12.44307,34.99947 29.6516,40.40028 v 105.52793 c -17.20853,5.45377 -29.6516,21.4974 -29.6516,40.45325 0,23.40359 18.95584,42.35943 42.35943,42.35943 23.40358,0 42.35942,-18.95584 42.35942,-42.35943 0,-18.00276 -11.22526,-33.41099 -27.11004,-39.50016 1.64143,-2.75337 4.13005,-5.18902 7.88946,-7.09522 8.57777,-4.34183 21.39149,-5.5067 34.99947,-6.7775 22.34459,-2.06501 47.65436,-4.44773 62.58605,-22.97998 7.4129,-9.21317 11.1723,-21.07381 11.43704,-35.95257 16.73197,-5.71852 28.80441,-21.55034 28.80441,-40.1885 z M 251.03383,183.97842 c 4.65952,0 8.47188,3.81234 8.47188,8.47189 0,4.65953 -3.81236,8.47188 -8.47188,8.47188 -4.65954,0 -8.47189,-3.81235 -8.47189,-8.47188 0,-4.65955 3.81235,-8.47189 8.47189,-8.47189 z m 0,203.32523 c -4.65954,0 -8.47189,-3.81234 -8.47189,-8.47188 0,-4.65953 3.81235,-8.47188 8.47189,-8.47188 4.65952,0 8.47188,3.81235 8.47188,8.47188 0,4.65954 -3.81236,8.47188 -8.47188,8.47188 z M 369.64021,217.86596 c 4.65954,0 8.47189,3.81234 8.47189,8.47188 0,4.65955 -3.81235,8.47188 -8.47189,8.47188 -4.65953,0 -8.47189,-3.81233 -8.47189,-8.47188 0,-4.65954 3.81236,-8.47188 8.47189,-8.47188 z"
     id="path2"
     inkscape:connector-curvature="0"
     style="stroke-width:0.52949286" />
</svg>
