<?xml version="1.0" encoding="UTF-8" standalone="no"?>
<svg
   xmlns:dc="http://purl.org/dc/elements/1.1/"
   xmlns:cc="http://creativecommons.org/ns#"
   xmlns:rdf="http://www.w3.org/1999/02/22-rdf-syntax-ns#"
   xmlns:svg="http://www.w3.org/2000/svg"
   xmlns="http://www.w3.org/2000/svg"
   xmlns:sodipodi="http://sodipodi.sourceforge.net/DTD/sodipodi-0.dtd"
   xmlns:inkscape="http://www.inkscape.org/namespaces/inkscape"
   viewBox="0 0 512 512"
   version="1.1"
   id="svg4"
   sodipodi:docname="f141-ellipsis-h.svg"
   inkscape:version="0.92.4 (5da689c313, 2019-01-14)">
  <metadata
     id="metadata10">
    <rdf:RDF>
      <cc:Work
         rdf:about="">
        <dc:format>image/svg+xml</dc:format>
        <dc:type
           rdf:resource="http://purl.org/dc/dcmitype/StillImage" />
      </cc:Work>
    </rdf:RDF>
  </metadata>
  <defs
     id="defs8" />
  <sodipodi:namedview
     pagecolor="#ffffff"
     bordercolor="#666666"
     borderopacity="1"
     objecttolerance="10"
     gridtolerance="10"
     guidetolerance="10"
     inkscape:pageopacity="0"
     inkscape:pageshadow="2"
     inkscape:window-width="763"
     inkscape:window-height="480"
     id="namedview6"
     showgrid="false"
     inkscape:zoom="3.1325436"
     inkscape:cx="226.27218"
     inkscape:cy="279.14753"
     inkscape:window-x="0"
     inkscape:window-y="24"
     inkscape:window-maximized="0"
     inkscape:current-layer="svg4" />
  <path
     d="m 307.7738,273.11246 c 0,13.57391 -10.98189,24.5558 -24.55579,24.5558 -13.57391,0 -24.5558,-10.98189 -24.5558,-24.5558 0,-13.57391 10.98189,-24.55579 24.5558,-24.55579 13.5739,0 24.55579,10.98188 24.55579,24.55579 z m 35.46949,-24.55579 c -13.5739,0 -24.55579,10.98188 -24.55579,24.55579 0,13.57391 10.98189,24.5558 24.55579,24.5558 13.57389,0 24.5558,-10.98189 24.5558,-24.5558 0,-13.57391 -10.98191,-24.55579 -24.5558,-24.55579 z m -120.05056,0 c -13.57391,0 -24.55579,10.98188 -24.55579,24.55579 0,13.57391 10.98188,24.5558 24.55579,24.5558 13.5739,0 24.5558,-10.98189 24.5558,-24.5558 0,-13.57391 -10.9819,-24.55579 -24.5558,-24.55579 z"
     id="path2"
     inkscape:connector-curvature="0"
     style="stroke-width:0.34105271" />
</svg>
