<?xml version="1.0" encoding="UTF-8" standalone="no"?>
<svg
   xmlns:dc="http://purl.org/dc/elements/1.1/"
   xmlns:cc="http://creativecommons.org/ns#"
   xmlns:rdf="http://www.w3.org/1999/02/22-rdf-syntax-ns#"
   xmlns:svg="http://www.w3.org/2000/svg"
   xmlns="http://www.w3.org/2000/svg"
   xmlns:sodipodi="http://sodipodi.sourceforge.net/DTD/sodipodi-0.dtd"
   xmlns:inkscape="http://www.inkscape.org/namespaces/inkscape"
   viewBox="0 0 448 512"
   version="1.1"
   id="svg4"
   sodipodi:docname="f1c0-database.svg"
   inkscape:version="0.92.4 (5da689c313, 2019-01-14)">
  <metadata
     id="metadata10">
    <rdf:RDF>
      <cc:Work
         rdf:about="">
        <dc:format>image/svg+xml</dc:format>
        <dc:type
           rdf:resource="http://purl.org/dc/dcmitype/StillImage" />
      </cc:Work>
    </rdf:RDF>
  </metadata>
  <defs
     id="defs8" />
  <sodipodi:namedview
     pagecolor="#ffffff"
     bordercolor="#666666"
     borderopacity="1"
     objecttolerance="10"
     gridtolerance="10"
     guidetolerance="10"
     inkscape:pageopacity="0"
     inkscape:pageshadow="2"
     inkscape:window-width="745"
     inkscape:window-height="480"
     id="namedview6"
     showgrid="false"
     inkscape:zoom="1.6003767"
     inkscape:cx="155.55465"
     inkscape:cy="246.96359"
     inkscape:window-x="360"
     inkscape:window-y="75"
     inkscape:window-maximized="0"
     inkscape:current-layer="svg4" />
  <path
     d="m 428.84018,167.51342 v 23.14463 c 0,20.39648 -50.79778,37.0317 -113.40938,37.0317 -62.6116,0 -113.40939,-16.63522 -113.40939,-37.0317 v -23.14463 c 0,-20.39647 50.79779,-37.03171 113.40939,-37.03171 62.6116,0 113.40938,16.63524 113.40938,37.03171 z m 0,52.07567 v 52.07566 c 0,20.39648 -50.79778,37.03172 -113.40938,37.03172 -62.6116,0 -113.40939,-16.63524 -113.40939,-37.03172 v -52.07566 c 24.3653,16.78002 68.96102,24.59161 113.40939,24.59161 44.44838,0 89.04358,-7.81159 113.40938,-24.59161 z m 0,81.0067 v 52.07567 c 0,20.39647 -50.79778,37.03171 -113.40938,37.03171 -62.6116,0 -113.40939,-16.63524 -113.40939,-37.03171 v -52.07567 c 24.3653,16.78004 68.96102,24.59161 113.40939,24.59161 44.44838,0 89.04358,-7.81157 113.40938,-24.59161 z"
     id="path2"
     inkscape:connector-curvature="0"
     style="stroke-width:0.50629187" />
</svg>
