<?xml version="1.0" encoding="UTF-8" standalone="no"?>
<svg
   xmlns:dc="http://purl.org/dc/elements/1.1/"
   xmlns:cc="http://creativecommons.org/ns#"
   xmlns:rdf="http://www.w3.org/1999/02/22-rdf-syntax-ns#"
   xmlns:svg="http://www.w3.org/2000/svg"
   xmlns="http://www.w3.org/2000/svg"
   xmlns:sodipodi="http://sodipodi.sourceforge.net/DTD/sodipodi-0.dtd"
   xmlns:inkscape="http://www.inkscape.org/namespaces/inkscape"
   viewBox="0 0 384 512"
   version="1.1"
   id="svg4"
   sodipodi:docname="f1c1-file-pdf.svg"
   inkscape:version="0.92.4 (5da689c313, 2019-01-14)">
  <metadata
     id="metadata10">
    <rdf:RDF>
      <cc:Work
         rdf:about="">
        <dc:format>image/svg+xml</dc:format>
        <dc:type
           rdf:resource="http://purl.org/dc/dcmitype/StillImage" />
      </cc:Work>
    </rdf:RDF>
  </metadata>
  <defs
     id="defs8" />
  <sodipodi:namedview
     pagecolor="#ffffff"
     bordercolor="#666666"
     borderopacity="1"
     objecttolerance="10"
     gridtolerance="10"
     guidetolerance="10"
     inkscape:pageopacity="0"
     inkscape:pageshadow="2"
     inkscape:window-width="763"
     inkscape:window-height="480"
     id="namedview6"
     showgrid="false"
     inkscape:zoom="1.149319"
     inkscape:cx="210.6726"
     inkscape:cy="163.19728"
     inkscape:window-x="254"
     inkscape:window-y="94"
     inkscape:window-maximized="0"
     inkscape:current-layer="svg4" />
  <path
     d="m 307.11327,246.32577 c -2.83809,-9.08189 -2.78133,-26.62126 -1.13525,-26.62126 4.768,0 4.31392,20.94509 1.13525,26.62126 z m -0.96495,26.79154 c -4.37063,11.46589 -9.81977,24.57785 -16.12033,35.58962 10.38738,-3.97332 22.1371,-9.76301 35.70315,-12.43082 -7.20875,-5.44912 -14.13371,-13.28224 -19.58282,-23.1588 z m -53.41282,70.83868 c 0,0.4541 7.49258,-3.06513 19.80987,-22.81821 -3.80306,3.57598 -16.51768,13.90662 -19.80987,22.81821 z m 91.8973,-152.17825 h 77.19599 v 186.17854 c 0,7.54933 -6.07351,13.62283 -13.62282,13.62283 H 217.48646 c -7.54934,0 -13.62283,-6.0735 -13.62283,-13.62283 V 114.58173 c 0,-7.54932 6.07349,-13.62283 13.62283,-13.62283 h 113.5235 v 77.196 c 0,7.49255 6.13028,13.62284 13.62284,13.62284 z m -4.54095,97.51669 c -11.35234,-6.92494 -18.90166,-16.46092 -24.23727,-30.53785 2.55428,-10.50091 6.58438,-26.45097 3.51923,-36.44103 -2.6678,-16.68796 -24.06698,-15.04187 -27.13212,-3.85981 -2.83809,10.38741 -0.22705,25.03196 4.5977,43.70656 -6.58435,15.66624 -16.29062,36.66809 -23.1588,48.7016 -0.0569,0 -0.0569,0.0568 -0.11352,0.0568 -15.38242,7.88988 -41.77666,25.25899 -30.93516,38.59797 3.17867,3.91658 9.0819,5.6762 12.20378,5.6762 10.16036,0 20.26394,-10.21713 34.68144,-35.07877 14.64453,-4.82476 30.7081,-10.8415 44.8418,-13.16872 12.31729,6.69786 26.73477,11.06852 36.32752,11.06852 16.57442,0 17.70967,-18.16376 11.18205,-24.63459 -7.88987,-7.71961 -30.82162,-5.50589 -41.77665,-4.08684 z m 77.76362,-128.73569 -55.62653,-55.62651 c -2.55427,-2.55427 -6.01675,-3.97333 -9.64949,-3.97333 h -3.40572 v 72.65508 h 72.65506 v -3.46248 c 0,-3.576 -1.41905,-7.03846 -3.97332,-9.59276 z m -42.06046,144.9128 c 2.32723,-1.53259 -1.41907,-6.75466 -24.29404,-5.10857 21.05862,8.96835 24.29404,5.10857 24.29404,5.10857 z"
     id="path2"
     inkscape:connector-curvature="0"
     style="stroke-width:0.56761765" />
</svg>
