<?xml version="1.0" encoding="UTF-8" standalone="no"?>
<svg
   xmlns:dc="http://purl.org/dc/elements/1.1/"
   xmlns:cc="http://creativecommons.org/ns#"
   xmlns:rdf="http://www.w3.org/1999/02/22-rdf-syntax-ns#"
   xmlns:svg="http://www.w3.org/2000/svg"
   xmlns="http://www.w3.org/2000/svg"
   xmlns:sodipodi="http://sodipodi.sourceforge.net/DTD/sodipodi-0.dtd"
   xmlns:inkscape="http://www.inkscape.org/namespaces/inkscape"
   viewBox="0 0 384 512"
   version="1.1"
   id="svg4"
   sodipodi:docname="f1c3-file-excel.svg"
   inkscape:version="0.92.4 (5da689c313, 2019-01-14)">
  <metadata
     id="metadata10">
    <rdf:RDF>
      <cc:Work
         rdf:about="">
        <dc:format>image/svg+xml</dc:format>
        <dc:type
           rdf:resource="http://purl.org/dc/dcmitype/StillImage" />
      </cc:Work>
    </rdf:RDF>
  </metadata>
  <defs
     id="defs8" />
  <sodipodi:namedview
     pagecolor="#ffffff"
     bordercolor="#666666"
     borderopacity="1"
     objecttolerance="10"
     gridtolerance="10"
     guidetolerance="10"
     inkscape:pageopacity="0"
     inkscape:pageshadow="2"
     inkscape:window-width="836"
     inkscape:window-height="480"
     id="namedview6"
     showgrid="false"
     inkscape:zoom="0.77553118"
     inkscape:cx="29.763437"
     inkscape:cy="247.95005"
     inkscape:window-x="0"
     inkscape:window-y="24"
     inkscape:window-maximized="0"
     inkscape:current-layer="svg4" />
  <path
     d="M 325.14625,176.57594 V 99.38 H 211.62281 C 204.0735,99.38 198,105.4535 198,113.00281 V 376.37719 C 198,383.9265 204.0735,390 211.62281,390 h 190.71938 c 7.54931,0 13.62281,-6.0735 13.62281,-13.62281 V 190.19875 h -77.19594 c -7.49254,0 -13.62281,-6.13027 -13.62281,-13.62281 z m 34.11379,60.45123 -34.11379,53.0722 34.11379,53.07221 c 2.89485,4.54094 -0.34057,10.50092 -5.73293,10.50092 h -19.80984 c -2.49752,0 -4.82475,-1.36228 -6.01674,-3.57599 -11.1253,-20.54774 -20.71803,-38.9953 -20.71803,-38.9953 -3.63275,8.40074 -5.67617,11.35234 -20.77479,39.05206 -1.192,2.21371 -3.46246,3.57599 -5.95998,3.57599 h -19.80984 c -5.39236,0 -8.62778,-5.95998 -5.73293,-10.50092 l 34.22731,-53.0722 -34.22731,-53.07221 c -2.95161,-4.54094 0.34057,-10.50092 5.73293,-10.50092 h 19.75308 c 2.49751,0 4.82474,1.36228 6.01674,3.57599 14.81481,27.69972 11.35235,19.07194 20.77479,38.88178 0,0 3.46246,-6.64112 20.77479,-38.88178 1.192,-2.21371 3.51923,-3.57599 6.01674,-3.57599 h 19.75308 c 5.39236,-0.0568 8.62778,5.90322 5.73293,10.44416 z M 415.965,168.57254 V 172.035 H 343.31 V 99.38 h 3.46246 c 3.63275,0 7.09522,1.41904 9.6495,3.97332 l 55.56972,55.62648 c 2.55428,2.55428 3.97332,6.01675 3.97332,9.59274 z"
     id="path2"
     inkscape:connector-curvature="0"
     style="stroke-width:0.56761718" />
</svg>
