<?xml version="1.0" encoding="UTF-8" standalone="no"?>
<svg
   xmlns:dc="http://purl.org/dc/elements/1.1/"
   xmlns:cc="http://creativecommons.org/ns#"
   xmlns:rdf="http://www.w3.org/1999/02/22-rdf-syntax-ns#"
   xmlns:svg="http://www.w3.org/2000/svg"
   xmlns="http://www.w3.org/2000/svg"
   xmlns:sodipodi="http://sodipodi.sourceforge.net/DTD/sodipodi-0.dtd"
   xmlns:inkscape="http://www.inkscape.org/namespaces/inkscape"
   viewBox="0 0 640 512"
   version="1.1"
   id="svg4"
   sodipodi:docname="f395-docker.svg"
   inkscape:version="0.92.4 (5da689c313, 2019-01-14)">
  <metadata
     id="metadata10">
    <rdf:RDF>
      <cc:Work
         rdf:about="">
        <dc:format>image/svg+xml</dc:format>
        <dc:type
           rdf:resource="http://purl.org/dc/dcmitype/StillImage" />
      </cc:Work>
    </rdf:RDF>
  </metadata>
  <defs
     id="defs8" />
  <sodipodi:namedview
     pagecolor="#ffffff"
     bordercolor="#666666"
     borderopacity="1"
     objecttolerance="10"
     gridtolerance="10"
     guidetolerance="10"
     inkscape:pageopacity="0"
     inkscape:pageshadow="2"
     inkscape:window-width="763"
     inkscape:window-height="480"
     id="namedview6"
     showgrid="false"
     inkscape:zoom="0.23046875"
     inkscape:cx="453.18377"
     inkscape:cy="351.8718"
     inkscape:window-x="0"
     inkscape:window-y="24"
     inkscape:window-maximized="0"
     inkscape:current-layer="svg4" />
  <path
     d="m 330.61768,253.22358 h -33.38834 v -30.00404 h 33.38834 z m 0,-103.1957 h -33.38834 v 30.66069 h 33.38834 z m 39.50026,73.14115 h -33.38833 v 30.00404 h 33.38833 z M 291.16793,186.74998 H 257.7796 v 30.35763 h 33.38833 z m 39.44975,0 h -33.38834 v 30.35763 h 33.38834 z m 139.81679,50.51185 c -7.27371,-4.89964 -24.04365,-6.66756 -36.92416,-4.24299 -1.66689,-12.12284 -8.43548,-22.67981 -20.76037,-32.17605 l -7.07166,-4.6976 -4.6976,7.07166 c -9.29418,14.0423 -11.81977,37.17672 -1.86894,52.4313 -4.39453,2.37405 -13.03205,5.60681 -24.44774,5.40476 H 155.08902 c -4.39453,25.66002 2.92968,58.99784 22.22521,81.87971 18.73989,22.1747 46.82448,33.43884 83.54659,33.43884 79.50565,0 138.35195,-36.62109 165.8809,-103.14519 10.80954,0.20204 34.14601,0.0505 46.11731,-22.83135 0.75768,-1.2628 3.33379,-6.66757 4.29351,-8.63753 z m -258.16604,-14.0928 h -33.33782 v 30.00404 h 33.38833 v -30.00404 z m 39.44975,0 h -33.38833 v 30.00404 h 33.38833 z m 39.44975,0 H 257.7796 v 30.00404 h 33.38833 z m -39.44975,-36.41905 h -33.38833 v 30.35763 h 33.38833 z"
     id="path2"
     inkscape:connector-curvature="0"
     style="stroke-width:0.50511849" />
</svg>
