<?xml version="1.0" encoding="UTF-8" standalone="no"?>
<svg
   xmlns:dc="http://purl.org/dc/elements/1.1/"
   xmlns:cc="http://creativecommons.org/ns#"
   xmlns:rdf="http://www.w3.org/1999/02/22-rdf-syntax-ns#"
   xmlns:svg="http://www.w3.org/2000/svg"
   xmlns="http://www.w3.org/2000/svg"
   xmlns:sodipodi="http://sodipodi.sourceforge.net/DTD/sodipodi-0.dtd"
   xmlns:inkscape="http://www.inkscape.org/namespaces/inkscape"
   viewBox="0 0 576 512"
   version="1.1"
   id="svg4"
   sodipodi:docname="f3a5-gem.svg"
   inkscape:version="0.92.4 (5da689c313, 2019-01-14)">
  <metadata
     id="metadata10">
    <rdf:RDF>
      <cc:Work
         rdf:about="">
        <dc:format>image/svg+xml</dc:format>
        <dc:type
           rdf:resource="http://purl.org/dc/dcmitype/StillImage" />
      </cc:Work>
    </rdf:RDF>
  </metadata>
  <defs
     id="defs8" />
  <sodipodi:namedview
     pagecolor="#ffffff"
     bordercolor="#666666"
     borderopacity="1"
     objecttolerance="10"
     gridtolerance="10"
     guidetolerance="10"
     inkscape:pageopacity="0"
     inkscape:pageshadow="2"
     inkscape:window-width="1280"
     inkscape:window-height="970"
     id="namedview6"
     showgrid="false"
     inkscape:zoom="0.69590759"
     inkscape:cx="277.74684"
     inkscape:cy="375.41198"
     inkscape:window-x="0"
     inkscape:window-y="24"
     inkscape:window-maximized="1"
     inkscape:current-layer="svg4" />
  <path
     d="m 303.81499,149.50738 73.10101,14.39015 -26.68275,31.09828 -67.47941,-20.94203 z m -33.7823,39.37268 67.47942,20.94203 -73.21259,85.32799 -30.95231,-63.51375 z m -70.46778,82.12896 21.06115,-24.5464 30.95231,63.51372 -26.68275,31.09828 z m 35.17388,78.51118 26.57717,-30.97524 109.88539,28.59506 c 1.34943,0.35676 1.10223,2.38767 -0.30455,2.40895 z m 39.11357,-45.5862 73.79323,-86.0047 61.72042,126.12178 c 0.4743,0.94101 -0.44944,2.01761 -1.45159,1.6918 z m 131.28964,3.64877 -44.96001,-104.26442 26.57718,-30.97524 20.68677,134.54623 c 0.22349,1.42007 -1.74628,1.97297 -2.30394,0.69343 z"
     id="path2"
     inkscape:connector-curvature="0"
     style="stroke-width:0.40530634" />
</svg>
