<?xml version="1.0" encoding="UTF-8" standalone="no"?>
<svg
   xmlns:dc="http://purl.org/dc/elements/1.1/"
   xmlns:cc="http://creativecommons.org/ns#"
   xmlns:rdf="http://www.w3.org/1999/02/22-rdf-syntax-ns#"
   xmlns:svg="http://www.w3.org/2000/svg"
   xmlns="http://www.w3.org/2000/svg"
   xmlns:sodipodi="http://sodipodi.sourceforge.net/DTD/sodipodi-0.dtd"
   xmlns:inkscape="http://www.inkscape.org/namespaces/inkscape"
   viewBox="0 0 512 512"
   version="1.1"
   id="svg4"
   sodipodi:docname="f41b-react.svg"
   inkscape:version="0.92.4 (5da689c313, 2019-01-14)">
  <metadata
     id="metadata10">
    <rdf:RDF>
      <cc:Work
         rdf:about="">
        <dc:format>image/svg+xml</dc:format>
        <dc:type
           rdf:resource="http://purl.org/dc/dcmitype/StillImage" />
        <dc:title />
      </cc:Work>
    </rdf:RDF>
  </metadata>
  <defs
     id="defs8" />
  <sodipodi:namedview
     pagecolor="#ffffff"
     bordercolor="#666666"
     borderopacity="1"
     objecttolerance="10"
     gridtolerance="10"
     guidetolerance="10"
     inkscape:pageopacity="0"
     inkscape:pageshadow="2"
     inkscape:window-width="1280"
     inkscape:window-height="975"
     id="namedview6"
     showgrid="false"
     inkscape:zoom="0.73164107"
     inkscape:cx="386.68579"
     inkscape:cy="231.05148"
     inkscape:window-x="0"
     inkscape:window-y="22"
     inkscape:window-maximized="1"
     inkscape:current-layer="svg4" />
  <path
     d="m 369.86797,241.7636 c -2.6522,-0.88407 -5.30438,-1.71902 -7.95658,-2.50486 0.44204,-1.81724 0.83495,-3.63449 1.22786,-5.45173 6.04112,-29.27236 2.06283,-52.7983 -11.34549,-60.55842 -12.91717,-7.41633 -33.98737,0.29468 -55.30317,18.86004 -2.11192,1.81724 -4.17473,3.73272 -6.13932,5.64818 -1.3261,-1.27698 -2.70132,-2.55397 -4.07653,-3.78182 -22.34719,-19.84235 -44.7435,-28.19184 -58.15181,-20.3826 -12.86805,7.46543 -16.69901,29.61616 -11.29638,57.31685 0.54025,2.75042 1.12964,5.45173 1.81724,8.20216 -3.14334,0.88406 -6.23755,1.86636 -9.13535,2.89776 -26.22724,9.08622 -45.03817,23.42772 -45.03817,38.26036 0,15.32379 20.03881,30.6967 47.29746,40.02849 2.21016,0.73672 4.42033,1.47344 6.6796,2.11193 -0.73672,2.94689 -1.37522,5.84465 -1.96458,8.84065 -5.15706,27.25866 -1.12964,48.86913 11.73841,56.28546 13.26097,7.66188 35.55905,-0.19647 57.26774,-19.20386 1.71903,-1.52255 3.43804,-3.09423 5.15705,-4.76412 2.16104,2.11193 4.42033,4.12564 6.6796,6.09022 21.02109,18.0742 41.79661,25.39231 54.61556,17.97599 13.26097,-7.6619 17.58306,-30.89316 11.98399,-59.18323 -0.44203,-2.16105 -0.93319,-4.37121 -1.47345,-6.63049 1.57167,-0.44203 3.09423,-0.93317 4.61679,-1.42432 28.33918,-9.38091 48.86913,-24.55735 48.86913,-40.12672 0,-14.88175 -19.3512,-29.32147 -46.0696,-38.50592 z m -66.4522,-41.69839 c 18.27067,-15.91317 35.31348,-22.15074 43.0736,-17.68129 8.30039,4.76412 11.49284,24.01708 6.28667,49.31116 -0.3438,1.6699 -0.6876,3.29069 -1.12962,4.91147 -10.90346,-2.45574 -21.95428,-4.22386 -33.05419,-5.20615 -6.38492,-9.13534 -13.35921,-17.87776 -20.92288,-26.07992 1.91548,-1.81724 3.78183,-3.53625 5.74642,-5.25527 z m -56.82572,105.69484 c 2.50485,4.27299 5.05882,8.54597 7.76013,12.72071 -7.66189,-0.83494 -15.27467,-2.06282 -22.78922,-3.6836 2.16104,-7.07252 4.86236,-14.39061 8.00569,-21.85604 2.25928,4.32209 4.56768,8.59508 7.0234,12.81893 z M 231.7083,246.67506 c 7.07252,-1.57166 14.58707,-2.84865 22.39631,-3.83094 -2.60308,4.07652 -5.15704,8.25126 -7.56367,12.47513 -2.40661,4.17475 -4.76413,8.44773 -6.97429,12.76983 -3.09422,-7.3181 -5.69729,-14.48884 -7.85835,-21.41402 z m 13.45743,33.84003 c 3.24157,-6.77783 6.77783,-13.40831 10.51056,-19.94055 3.73271,-6.53227 7.76012,-12.86805 11.98397,-19.10564 7.36721,-0.54025 14.88177,-0.83494 22.54365,-0.83494 7.66191,0 15.22557,0.29469 22.54367,0.83494 4.17473,6.18846 8.15304,12.52426 11.93486,19.0074 3.78184,6.48314 7.31809,13.11363 10.6579,19.84233 -3.2907,6.77784 -6.82695,13.45743 -10.60879,20.0388 -3.73271,6.53227 -7.711,12.86806 -11.88575,19.15475 -7.31809,0.54026 -14.93087,0.78583 -22.64189,0.78583 -7.711,0 -15.17644,-0.24557 -22.3963,-0.68761 -4.27298,-6.23756 -8.30039,-12.62248 -12.08221,-19.15474 -3.78184,-6.53224 -7.26898,-13.16273 -10.55967,-19.94057 z m 88.70117,25.14673 c 2.50485,-4.32209 4.86235,-8.69329 7.17074,-13.11363 3.14335,7.12164 5.89376,14.34151 8.30038,21.75783 -7.61278,1.71901 -15.32378,3.0451 -23.08391,3.92917 2.65219,-4.12564 5.15704,-8.3495 7.61279,-12.57337 z m 7.07251,-37.57274 c -2.30839,-4.3221 -4.66589,-8.64419 -7.12163,-12.86806 -2.40663,-4.17474 -4.91148,-8.30038 -7.51455,-12.3769 7.90747,0.98229 15.47113,2.30838 22.54365,3.92917 -2.25928,7.26898 -4.91148,14.34149 -7.90747,21.31579 z m -50.63726,-55.25404 c 5.15704,5.59907 10.01939,11.49283 14.53796,17.58306 -9.72472,-0.44204 -19.49854,-0.44204 -29.22326,0 4.81324,-6.33581 9.77382,-12.22957 14.6853,-17.58306 z m -56.97306,-30.10732 c 8.25127,-4.81325 26.57105,2.06281 45.87313,19.15473 1.22787,1.08052 2.45575,2.25928 3.73272,3.43803 -7.61277,8.20216 -14.63618,16.94458 -21.07021,26.07992 -11.09991,0.98229 -22.10161,2.70129 -33.00508,5.10792 -0.63849,-2.50485 -1.17876,-5.05882 -1.71901,-7.61278 -4.61679,-23.77151 -1.57168,-41.69839 6.18845,-46.16782 z m -12.0331,129.46636 c -2.06283,-0.58938 -4.07652,-1.22786 -6.09023,-1.91546 -10.46143,-3.2907 -22.3472,-8.49685 -30.94226,-15.3238 -4.96059,-3.43803 -8.30039,-8.74241 -9.23357,-14.6853 0,-8.98798 15.52025,-20.48083 37.91655,-28.29007 2.79955,-0.98229 5.6482,-1.86636 8.49684,-2.70131 3.3398,10.6579 7.36721,21.11932 12.03312,31.23695 -4.71502,10.26498 -8.79154,20.87376 -12.18045,31.67899 z m 57.26774,48.13241 c -8.10393,7.41632 -17.48483,13.31009 -27.70068,17.3375 -5.45175,2.60308 -11.73843,2.84865 -17.3375,0.63848 -7.80923,-4.51854 -11.05082,-21.85603 -6.63049,-45.18552 0.54026,-2.75042 1.12964,-5.50084 1.81725,-8.20216 11.00169,2.35752 22.10162,3.97829 33.34888,4.81325 6.48315,9.18444 13.60478,17.97598 21.21755,26.22725 -1.57167,1.52255 -3.14333,2.996 -4.71501,4.3712 z m 12.0331,-11.93486 c -5.00969,-5.40262 -10.0194,-11.39463 -14.88175,-17.82865 4.71501,0.19646 9.57738,0.29469 14.48883,0.29469 5.05882,0 10.01941,-0.0982 14.93088,-0.3438 -4.51856,6.23756 -9.38091,12.18045 -14.53796,17.87776 z m 64.19293,14.73441 c -0.44204,5.99199 -3.38892,11.59107 -8.10393,15.3729 -7.80924,4.51854 -24.45913,-1.37521 -42.4351,-16.79723 -2.06282,-1.76814 -4.12563,-3.68359 -6.23758,-5.6482 7.51456,-8.30038 14.43973,-17.09191 20.72641,-26.32547 11.24728,-0.93318 22.44542,-2.65221 33.49624,-5.15706 0.49114,2.01372 0.93318,4.02741 1.32609,5.992 2.40662,10.60878 2.79955,21.65958 1.22787,32.56306 z m 8.93888,-52.79832 c -1.37521,0.44203 -2.75043,0.88407 -4.17476,1.27698 -3.43803,-10.707 -7.66188,-21.16843 -12.52425,-31.33518 4.71501,-10.0194 8.69331,-20.33348 12.0331,-30.89315 2.55397,0.73672 5.00971,1.52256 7.36722,2.30839 22.88746,7.85836 38.94796,19.54766 38.94796,28.48653 0,9.62649 -17.14104,22.05251 -41.64927,30.15643 z m -73.52473,-7.36721 c 12.42604,0 22.49455,-10.06851 22.49455,-22.49453 0,-12.42602 -10.06851,-22.49453 -22.49455,-22.49453 -12.42601,0 -22.49453,10.06851 -22.49453,22.49453 0,12.42602 10.06852,22.49453 22.49453,22.49453 z"
     id="path2"
     inkscape:connector-curvature="0"
     style="stroke-width:0.49114707" />
</svg>
