<?xml version="1.0" encoding="UTF-8" standalone="no"?>
<svg
   xmlns:dc="http://purl.org/dc/elements/1.1/"
   xmlns:cc="http://creativecommons.org/ns#"
   xmlns:rdf="http://www.w3.org/1999/02/22-rdf-syntax-ns#"
   xmlns:svg="http://www.w3.org/2000/svg"
   xmlns="http://www.w3.org/2000/svg"
   xmlns:sodipodi="http://sodipodi.sourceforge.net/DTD/sodipodi-0.dtd"
   xmlns:inkscape="http://www.inkscape.org/namespaces/inkscape"
   viewBox="0 0 512 512"
   version="1.1"
   id="svg4"
   sodipodi:docname="f41b-react.svg"
   inkscape:version="0.92.4 (5da689c313, 2019-01-14)">
  <metadata
     id="metadata10">
    <rdf:RDF>
      <cc:Work
         rdf:about="">
        <dc:format>image/svg+xml</dc:format>
        <dc:type
           rdf:resource="http://purl.org/dc/dcmitype/StillImage" />
        <dc:title />
      </cc:Work>
    </rdf:RDF>
  </metadata>
  <defs
     id="defs8" />
  <sodipodi:namedview
     pagecolor="#ffffff"
     bordercolor="#666666"
     borderopacity="1"
     objecttolerance="10"
     gridtolerance="10"
     guidetolerance="10"
     inkscape:pageopacity="0"
     inkscape:pageshadow="2"
     inkscape:window-width="1280"
     inkscape:window-height="973"
     id="namedview6"
     showgrid="false"
     inkscape:zoom="0.76132515"
     inkscape:cx="256.70315"
     inkscape:cy="422.35046"
     inkscape:window-x="0"
     inkscape:window-y="22"
     inkscape:window-maximized="1"
     inkscape:current-layer="svg4" />
  <path
     style="stroke-width:0.50653964"
     d="m 346.22425,163.55881 c -12.76242,-0.0926 -29.10863,7.97255 -45.59651,22.33295 -2.17811,1.87418 -4.3049,3.84795 -6.33106,5.82344 -1.36766,-1.317 -2.78561,-2.63342 -4.20392,-3.89975 -23.04755,-20.46422 -46.14631,-29.0756 -59.97484,-21.02161 -13.27133,7.69939 -17.22287,30.54589 -11.65092,59.11472 0.55718,2.83662 1.16619,5.62157 1.87534,8.4582 -3.24185,0.91176 -6.43444,1.92555 -9.42306,2.98927 -27.04921,9.37099 -46.44858,24.16133 -46.44858,39.45883 0,15.80404 20.66623,31.65957 48.77917,41.28382 2.27943,0.75981 4.55896,1.519 6.88903,2.1775 -0.75981,3.03925 -1.4186,6.02699 -2.02643,9.11688 -5.31868,28.11295 -1.16517,50.40039 12.10616,58.04914 13.67657,7.90201 36.67331,-0.20187 59.06235,-19.80495 1.77291,-1.57027 3.54698,-3.19074 5.31986,-4.91297 2.22877,2.17812 4.55896,4.25455 6.88903,6.2807 21.6799,18.64065 43.10619,26.1887 56.32689,18.53996 13.67657,-7.90203 18.13451,-31.86174 12.35996,-61.03842 -0.45588,-2.22878 -0.96363,-4.50859 -1.52082,-6.83868 1.62092,-0.45588 3.19161,-0.96191 4.76189,-1.46845 29.22733,-9.67491 50.40071,-25.32722 50.40071,-41.38453 0,-15.34815 -19.95841,-30.24035 -47.51416,-39.71264 -2.73532,-0.91178 -5.46908,-1.77393 -8.2044,-2.58439 0.4559,-1.8742 0.85978,-3.74782 1.265,-5.62201 6.23045,-30.18976 2.12727,-54.45318 -11.70127,-62.45651 -3.3305,-1.91219 -7.18528,-2.84963 -11.43942,-2.8805 z m -0.57005,10.85123 c 2.57999,-0.0373 4.78982,0.444 6.54054,1.45234 8.56053,4.91343 11.85147,24.76914 6.48214,50.85594 -0.35458,1.72223 -0.70842,3.39448 -1.16429,5.06605 -11.24518,-2.5327 -22.64284,-4.35714 -34.09062,-5.37022 -6.58502,-9.42164 -13.77686,-18.43821 -21.57757,-26.89743 1.97551,-1.87419 3.90002,-3.64768 5.92618,-5.42058 14.72131,-12.82178 28.66935,-19.55274 37.88362,-19.6861 z m -103.19042,0.26387 c 9.84725,0.18558 24.78273,7.52603 40.33507,21.29758 1.26635,1.11438 2.53241,2.32954 3.8494,3.54523 -7.85135,8.45922 -15.09499,17.47579 -21.73067,26.89743 -11.44778,1.01308 -22.79508,2.78544 -34.04025,5.26749 -0.6585,-2.58335 -1.21544,-5.21587 -1.77263,-7.84987 -4.76148,-24.51651 -1.62191,-43.00537 6.38142,-47.61487 1.86154,-1.0859 4.22044,-1.59494 6.97766,-1.54299 z m 51.78254,32.59398 c 5.31866,5.77455 10.33252,11.85196 14.9927,18.13305 -10.02949,-0.45589 -20.10899,-0.45589 -30.13849,0 4.96409,-6.53437 10.08038,-12.61178 15.14579,-18.13305 z m -0.10273,28.67005 c 7.90203,0 15.70404,0.30294 23.25149,0.86012 4.30556,6.3824 8.40724,12.91719 12.30759,19.60351 3.90036,6.68633 7.54775,13.52407 10.99223,20.46365 -3.39383,6.99026 -7.0395,13.87945 -10.93986,20.66708 -3.84969,6.737 -7.95367,13.27089 -12.25925,19.7546 -7.54744,0.55719 -15.39952,0.81178 -23.3522,0.81178 -7.95267,0 -15.65226,-0.25315 -23.09839,-0.70905 -4.4069,-6.43304 -8.56034,-13.01962 -12.46068,-19.75661 -3.90037,-6.73696 -7.49568,-13.5741 -10.8895,-20.56436 3.34316,-6.99024 6.98942,-13.8294 10.83914,-20.56637 3.84969,-6.73699 8.00374,-13.27116 12.35997,-19.70423 7.5981,-0.55718 15.34745,-0.86012 23.24946,-0.86012 z m -37.22896,2.27821 c -2.68466,4.20428 -5.31946,8.50932 -7.80152,12.86557 -2.48203,4.30558 -4.91377,8.71418 -7.19319,13.17173 -3.1912,-7.54745 -5.8749,-14.94296 -8.10369,-22.08517 7.29418,-1.62092 15.04442,-2.93906 23.0984,-3.95213 z m 74.45993,0 c 8.15529,1.01307 15.95732,2.38126 23.25149,4.05285 -2.33008,7.49679 -5.06617,14.79158 -8.15605,21.98445 -2.38074,-4.45755 -4.81156,-8.91621 -7.34427,-13.27246 -2.48205,-4.30557 -5.06652,-8.56056 -7.75117,-12.76484 z m -108.14567,6.63522 c 3.44447,10.99192 7.59818,21.78257 12.41032,32.21729 -4.86279,10.58669 -9.06627,21.52666 -12.56139,32.67052 -2.12748,-0.60785 -4.2059,-1.26489 -6.28272,-1.97404 -10.78929,-3.39383 -23.04669,-8.76358 -31.91112,-15.80449 -5.11605,-3.54577 -8.56135,-9.01665 -9.52377,-15.14579 0,-9.26967 16.00812,-21.12367 39.10632,-29.17766 2.88729,-1.01307 5.82444,-1.92471 8.76236,-2.78583 z m 141.93214,0.10273 c 2.63401,0.75981 5.16668,1.57049 7.59808,2.38095 23.60475,8.10464 40.16787,20.16008 40.16787,29.3791 0,9.92817 -17.67738,22.74344 -42.9537,31.10134 -1.41831,0.45588 -2.83567,0.91216 -4.30464,1.31738 -3.54578,-11.04256 -7.90318,-21.83264 -12.91793,-32.31801 4.86277,-10.33341 8.96586,-20.97015 12.41032,-31.86076 z m -71.01945,16.96474 a 15.002996,15.002996 0 0 0 -15.00277,15.00278 15.002996,15.002996 0 0 0 15.00277,15.00479 15.002996,15.002996 0 0 0 15.00278,-15.00479 15.002996,15.002996 0 0 0 -15.00278,-15.00278 z m 52.42914,27.56015 c 3.24186,7.34484 6.07888,14.79096 8.56093,22.4397 -7.85137,1.77289 -15.8041,3.13906 -23.80744,4.05084 2.73531,-4.25494 5.31917,-8.61004 7.85188,-12.96629 2.58336,-4.45754 5.01389,-8.96537 7.39463,-13.52425 z m -104.6508,0.40489 c 2.33008,4.45754 4.71086,8.86386 7.24354,13.22008 2.58335,4.40691 5.21699,8.8138 8.00296,13.11937 -7.90201,-0.8611 -15.75321,-2.12746 -23.50327,-3.79903 2.22877,-7.29418 5.01493,-14.84103 8.25677,-22.54042 z m 116.201,32.62015 c 0.50654,2.07683 0.96251,4.15382 1.36774,6.17998 2.48204,10.94126 2.88593,22.33983 1.265,33.58503 -0.4559,6.17978 -3.4947,11.95248 -8.35748,15.85283 -8.05398,4.66015 -25.22614,-1.41795 -43.76548,-17.3233 -2.12747,-1.82355 -4.25364,-3.79928 -6.43178,-5.82546 7.75007,-8.56051 14.89243,-17.62627 21.37613,-27.14921 11.59977,-0.96243 23.14872,-2.73652 34.54587,-5.31987 z m -127.39467,0.35452 c 11.34648,2.43141 22.79303,4.10422 34.39278,4.96535 6.68633,9.47228 14.03239,18.53863 21.88374,27.0485 -1.62092,1.57027 -3.24167,3.08978 -4.86261,4.50808 -8.35791,7.64875 -18.03331,13.72763 -28.56933,17.88126 -5.62261,2.68466 -12.10671,2.93813 -17.88126,0.65869 -8.05397,-4.66015 -11.39753,-22.54102 -6.83867,-46.60166 0.55719,-2.83662 1.16619,-5.67424 1.87535,-8.46022 z m 78.81695,5.7751 c -4.66018,6.43305 -9.67404,12.56338 -14.99271,18.43924 -5.16669,-5.57194 -10.33451,-11.75321 -15.34925,-18.38888 4.86278,0.20262 9.87697,0.30417 14.94235,0.30417 5.21737,0 10.33421,-0.10123 15.39961,-0.35453 z"
     id="path2"
     inkscape:connector-curvature="0" />
</svg>
