<?xml version="1.0" encoding="UTF-8" standalone="no"?>
<svg
   xmlns:dc="http://purl.org/dc/elements/1.1/"
   xmlns:cc="http://creativecommons.org/ns#"
   xmlns:rdf="http://www.w3.org/1999/02/22-rdf-syntax-ns#"
   xmlns:svg="http://www.w3.org/2000/svg"
   xmlns="http://www.w3.org/2000/svg"
   xmlns:sodipodi="http://sodipodi.sourceforge.net/DTD/sodipodi-0.dtd"
   xmlns:inkscape="http://www.inkscape.org/namespaces/inkscape"
   viewBox="0 0 377.6 512"
   version="1.1"
   id="svg4"
   sodipodi:docname="f4e4-java.svg"
   inkscape:version="0.92.4 (5da689c313, 2019-01-14)">
  <metadata
     id="metadata10">
    <rdf:RDF>
      <cc:Work
         rdf:about="">
        <dc:format>image/svg+xml</dc:format>
        <dc:type
           rdf:resource="http://purl.org/dc/dcmitype/StillImage" />
      </cc:Work>
    </rdf:RDF>
  </metadata>
  <defs
     id="defs8" />
  <sodipodi:namedview
     pagecolor="#ffffff"
     bordercolor="#666666"
     borderopacity="1"
     objecttolerance="10"
     gridtolerance="10"
     guidetolerance="10"
     inkscape:pageopacity="0"
     inkscape:pageshadow="2"
     inkscape:window-width="1128"
     inkscape:window-height="800"
     id="namedview6"
     showgrid="false"
     inkscape:zoom="1.7062096"
     inkscape:cx="246.61878"
     inkscape:cy="267.37623"
     inkscape:window-x="0"
     inkscape:window-y="24"
     inkscape:window-maximized="0"
     inkscape:current-layer="svg4" />
  <path
     d="m 350.98362,260.87958 c 6.65827,-4.55208 15.89832,-13.08408 15.89832,-13.08408 0,0 -26.29338,4.7559 -52.45086,6.93003 -32.00046,2.64972 -66.37887,3.19325 -83.63602,0.88324 -40.83286,-5.43532 22.4207,-20.4504 22.4207,-20.4504 0,0 -24.52688,-1.6306 -54.76086,12.90889 -35.66931,17.25715 88.32398,29.72976 152.52872,12.81232 z m -58.02206,-26.40062 c -12.9089,-29.01104 -58.21769,-30.35994 -1.75828,-74.92958 13.37081,-11.81133 -6.66843,-42.59048 -6.66843,-42.59048 12.84916,45.6887 -0.0542,32.61954 -25.07386,59.49742 -16.23802,24.391 0.54892,28.26425 33.50057,58.02264 z m 54.07576,-68.83382 c 0.0679,0 -95.24832,-21.12076 -38.38127,44.37487 16.78156,19.29539 -4.4162,36.68842 -4.4162,36.68842 0,0 31.16262,-18.64931 11.59546,-46.16564 -23.55112,-25.68189 -25.15099,-34.5074 31.20201,-34.89765 z m 19.64079,132.90267 c -0.3397,0.8153 -1.35883,1.69854 -1.35883,1.76648 87.16898,-22.89629 55.10058,-80.78247 13.45242,-66.1071 -3.66883,1.29088 -5.5712,4.28032 -5.5712,4.28032 0,0 2.31001,-0.95119 7.47357,-2.03825 21.06188,-4.4162 51.29585,28.19573 -13.99596,62.09855 z m 32.0684,42.32757 c 0,0 9.85153,8.08505 -10.8027,14.40361 -39.33814,11.88976 -163.60319,15.49067 -198.11749,0.47559 -12.43329,-5.36739 10.87065,-12.90889 18.20833,-14.47155 7.60946,-1.63059 12.02566,-1.35883 12.02566,-1.35883 -13.79213,-9.71564 -89.20723,23.68296 -38.31902,31.90389 138.73658,22.55659 253.01423,-14.71469 217.00522,-30.95271 z M 246.82927,312.74759 c -53.46998,14.94713 32.54398,50.38398 100.62139,21.23707 -11.14241,-4.34826 -19.15951,-13.96732 -19.15951,-13.96732 -30.36986,5.77503 -44.43376,6.18268 -72.01801,3.05736 -22.76041,-2.58178 -9.44387,-10.32711 -9.44387,-10.32711 z m 122.15886,66.03916 c -53.46999,10.05535 -119.4412,8.90034 -158.50759,2.4459 0,-0.068 8.01711,11.18172 49.18967,13.83144 62.64209,4.00855 158.84729,-6.83347 161.08936,-36.45597 0,0 -4.34826,11.21035 -51.77144,20.17863 z m -29.62251,-95.25401 c -40.22138,7.74533 -63.52532,7.5415 -92.94401,4.48414 -22.76041,-2.37795 -7.88121,-13.38448 -7.88121,-13.38448 -58.97324,19.56715 32.74781,46.30748 115.16088,22.18825 -8.76446,-3.05737 -14.33566,-13.28791 -14.33566,-13.28791 z"
     id="path2"
     inkscape:connector-curvature="0"
     style="stroke-width:0.67941529"
     sodipodi:nodetypes="ccccccccccccccccccccccccccccccccccccccccccccc" />
</svg>
