<?xml version="1.0" encoding="UTF-8" standalone="no"?>
<svg
   xmlns:dc="http://purl.org/dc/elements/1.1/"
   xmlns:cc="http://creativecommons.org/ns#"
   xmlns:rdf="http://www.w3.org/1999/02/22-rdf-syntax-ns#"
   xmlns:svg="http://www.w3.org/2000/svg"
   xmlns="http://www.w3.org/2000/svg"
   xmlns:sodipodi="http://sodipodi.sourceforge.net/DTD/sodipodi-0.dtd"
   xmlns:inkscape="http://www.inkscape.org/namespaces/inkscape"
   viewBox="0 0 384 512"
   version="1.1"
   id="svg4"
   sodipodi:docname="f559-award.svg"
   inkscape:version="0.92.3 (2405546, 2018-03-11)">
  <metadata
     id="metadata10">
    <rdf:RDF>
      <cc:Work
         rdf:about="">
        <dc:format>image/svg+xml</dc:format>
        <dc:type
           rdf:resource="http://purl.org/dc/dcmitype/StillImage" />
      </cc:Work>
    </rdf:RDF>
  </metadata>
  <defs
     id="defs8" />
  <sodipodi:namedview
     pagecolor="#ffffff"
     bordercolor="#666666"
     borderopacity="1"
     objecttolerance="10"
     gridtolerance="10"
     guidetolerance="10"
     inkscape:pageopacity="0"
     inkscape:pageshadow="2"
     inkscape:window-width="640"
     inkscape:window-height="480"
     id="namedview6"
     showgrid="false"
     inkscape:zoom="1.0552209"
     inkscape:cx="196.80721"
     inkscape:cy="251.19279"
     inkscape:window-x="364"
     inkscape:window-y="106"
     inkscape:window-maximized="0"
     inkscape:current-layer="svg4" />
  <path
     d="m 235.18141,287.81612 -2.98508,-2.98507 a 5.0712562,5.0712562 0 0 0 -2.26415,-1.30668 l -8.89892,-2.38806 c -5.35626,-1.43623 -10.06481,-4.19601 -14.32276,-7.50213 l -25.55342,62.65852 c -2.47253,6.06591 2.14589,12.65562 8.69054,12.40779 l 29.6762,-1.13208 20.41118,21.56016 c 4.50579,4.7536 12.41344,3.27234 14.88596,-2.79358 l 29.31574,-71.87848 c -6.10533,3.40188 -12.88089,5.39567 -19.88739,5.39567 -10.98283,0 -21.30107,-4.27484 -29.0679,-12.03606 z m 160.90143,48.47658 -25.55341,-62.65289 c -4.25796,3.31176 -8.96651,6.0659 -14.32276,7.50212 l -8.89892,2.38244 a 5.0712562,5.0712562 0 0 0 -2.26415,1.30668 l -2.98508,2.98507 c -7.76684,7.76122 -18.09071,12.03606 -29.07354,12.03606 -7.00649,0 -13.78206,-1.99943 -19.8874,-5.39567 l 29.31574,71.87848 c 2.47254,6.06592 10.38582,7.54718 14.88597,2.79358 l 20.41682,-21.56016 29.67619,1.13208 c 6.54466,0.24783 11.16308,-6.34751 8.69054,-12.40779 z m -67.47407,-61.22231 2.93439,-2.98507 c 2.81611,-2.8668 6.31936,-4.9282 10.16616,-5.97579 l 8.74687,-2.38244 c 7.82315,-2.13461 13.93973,-8.35823 16.03493,-16.32218 l 2.34301,-8.90456 a 23.173794,23.173794 0 0 1 5.86879,-10.34639 l 6.40383,-6.51649 c 5.72798,-5.82936 7.96395,-14.32837 5.86877,-22.29236 l -2.343,-8.90453 a 23.462164,23.462164 0 0 1 0,-11.94595 l 2.343,-8.90455 c 2.09518,-7.96399 -0.14079,-16.46301 -5.86877,-22.29236 l -6.40383,-6.51649 c -2.81612,-2.8668 -4.8381,-6.43199 -5.86879,-10.3464 l -2.34301,-8.89891 c -2.0952,-7.96397 -8.21178,-14.18758 -16.03493,-16.32219 l -8.74687,-2.38806 c -3.8468,-1.0476 -7.35005,-3.108995 -10.16616,-5.975798 l -6.40383,-6.516483 c -5.72798,-5.829355 -14.08058,-8.110408 -21.90373,-5.975795 l -8.74686,2.388066 a 22.311501,22.311501 0 0 1 -11.73755,0 l -8.74686,-2.382432 c -7.82316,-2.134613 -16.17576,0.140806 -21.90373,5.975792 l -6.40384,6.516486 c -2.8161,2.866803 -6.31936,4.922564 -10.16615,5.975794 l -8.74687,2.38806 c -7.82316,2.13461 -13.93975,8.35823 -16.03493,16.32218 l -2.34302,8.89892 a 23.173794,23.173794 0 0 1 -5.86878,10.3464 l -6.40383,6.51648 c -5.72798,5.82936 -7.9696,14.32839 -5.86878,22.29236 l 2.343,8.89893 a 23.462164,23.462164 0 0 1 0,11.94595 l -2.343,8.8989 c -2.09518,7.96397 0.1408,16.463 5.86878,22.29799 l 6.40383,6.51649 c 2.81612,2.86679 4.83809,6.432 5.86878,10.34639 l 2.34302,8.89893 c 2.09518,7.96396 8.21177,14.18755 16.03493,16.32219 l 8.74687,2.38242 c 3.84679,1.0476 7.35005,3.10899 10.16615,5.9758 l 2.9344,2.9907 c 7.45143,7.58663 19.05945,8.94398 28.01469,3.27797 a 22.34642,22.34642 0 0 1 23.95386,0 c 8.94961,5.66601 20.55763,4.30866 28.00906,-3.27797 z m -93.12323,-92.39103 c 0,-29.86768 23.79053,-54.08064 53.13442,-54.08064 29.34389,0 53.13443,24.21296 53.13443,54.08064 0,29.86769 -23.79054,54.08064 -53.13443,54.08064 -29.34389,0 -53.13442,-24.21295 -53.13442,-54.08064 z"
     id="path2"
     inkscape:connector-curvature="0"
     style="stroke-width:0.56322259" />
</svg>
