<?xml version="1.0" encoding="UTF-8" standalone="no"?>
<svg
   xmlns:dc="http://purl.org/dc/elements/1.1/"
   xmlns:cc="http://creativecommons.org/ns#"
   xmlns:rdf="http://www.w3.org/1999/02/22-rdf-syntax-ns#"
   xmlns:svg="http://www.w3.org/2000/svg"
   xmlns="http://www.w3.org/2000/svg"
   xmlns:sodipodi="http://sodipodi.sourceforge.net/DTD/sodipodi-0.dtd"
   xmlns:inkscape="http://www.inkscape.org/namespaces/inkscape"
   viewBox="0 0 512 512"
   version="1.1"
   id="svg4"
   sodipodi:docname="f560-check-double.svg"
   inkscape:version="0.92.4 (5da689c313, 2019-01-14)">
  <metadata
     id="metadata10">
    <rdf:RDF>
      <cc:Work
         rdf:about="">
        <dc:format>image/svg+xml</dc:format>
        <dc:type
           rdf:resource="http://purl.org/dc/dcmitype/StillImage" />
      </cc:Work>
    </rdf:RDF>
  </metadata>
  <defs
     id="defs8" />
  <sodipodi:namedview
     pagecolor="#ffffff"
     bordercolor="#666666"
     borderopacity="1"
     objecttolerance="10"
     gridtolerance="10"
     guidetolerance="10"
     inkscape:pageopacity="0"
     inkscape:pageshadow="2"
     inkscape:window-width="763"
     inkscape:window-height="480"
     id="namedview6"
     showgrid="false"
     inkscape:zoom="0.9556995"
     inkscape:cx="349.46119"
     inkscape:cy="200.20755"
     inkscape:window-x="240"
     inkscape:window-y="190"
     inkscape:window-maximized="0"
     inkscape:current-layer="svg4" />
  <path
     d="m 427.90614,217.19217 -17.33128,-17.43181 c -4.78764,-4.81158 -12.54841,-4.81158 -17.33126,0 L 278.29221,315.37243 224.6227,261.3965 c -4.78763,-4.81637 -12.54841,-4.81637 -17.33127,0 l -17.33128,17.43183 c -4.78764,4.81157 -4.78764,12.62023 0,17.43182 l 79.66643,80.12603 c 4.78764,4.81637 12.54842,4.81637 17.33126,0 l 140.9483,-141.75739 c 4.78765,-4.81638 4.78765,-12.62024 0,-17.43662 z m -161.78892,53.02797 c 3.27477,3.36091 8.70395,3.36091 12.06967,0.0861 L 379.7185,169.63651 c 3.36091,-3.27477 3.36091,-8.70395 0.0861,-12.06967 l -20.0841,-20.16556 c -3.27476,-3.36092 -8.70395,-3.36092 -12.06966,-0.0861 l -75.24265,74.72556 -32.66609,-32.92465 c -3.27475,-3.36092 -8.70394,-3.36092 -12.06488,-0.0861 l -20.17035,19.998 c -3.36092,3.27476 -3.36092,8.70393 -0.0861,12.06487 z"
     id="path2"
     inkscape:connector-curvature="0"
     style="stroke-width:0.47876456" />
</svg>
