<?xml version="1.0" encoding="UTF-8" standalone="no"?>
<svg
   xmlns:dc="http://purl.org/dc/elements/1.1/"
   xmlns:cc="http://creativecommons.org/ns#"
   xmlns:rdf="http://www.w3.org/1999/02/22-rdf-syntax-ns#"
   xmlns:svg="http://www.w3.org/2000/svg"
   xmlns="http://www.w3.org/2000/svg"
   xmlns:sodipodi="http://sodipodi.sourceforge.net/DTD/sodipodi-0.dtd"
   xmlns:inkscape="http://www.inkscape.org/namespaces/inkscape"
   viewBox="0 0 448 512"
   version="1.1"
   id="svg4"
   sodipodi:docname="ff01-js-file.svg"
   inkscape:version="0.92.4 (5da689c313, 2019-01-14)">
  <metadata
     id="metadata10">
    <rdf:RDF>
      <cc:Work
         rdf:about="">
        <dc:format>image/svg+xml</dc:format>
        <dc:type
           rdf:resource="http://purl.org/dc/dcmitype/StillImage" />
        <dc:title />
      </cc:Work>
    </rdf:RDF>
  </metadata>
  <defs
     id="defs8" />
  <sodipodi:namedview
     pagecolor="#ffffff"
     bordercolor="#666666"
     borderopacity="1"
     objecttolerance="10"
     gridtolerance="10"
     guidetolerance="10"
     inkscape:pageopacity="0"
     inkscape:pageshadow="2"
     inkscape:window-width="1280"
     inkscape:window-height="970"
     id="namedview6"
     showgrid="false"
     inkscape:zoom="3.4527392"
     inkscape:cx="296.70745"
     inkscape:cy="193.13707"
     inkscape:window-x="0"
     inkscape:window-y="24"
     inkscape:window-maximized="1"
     inkscape:current-layer="svg4" />
  <path
     style="font-style:normal;font-variant:normal;font-weight:bold;font-stretch:normal;font-size:187.23854065px;line-height:136.00000143%;font-family:'TeX Gyre Adventor';-inkscape-font-specification:'TeX Gyre Adventor Bold';text-align:end;letter-spacing:0px;word-spacing:0px;text-anchor:end;fill:#000000;fill-opacity:1;stroke:none;stroke-width:1.27750635px;stroke-linecap:butt;stroke-linejoin:miter;stroke-opacity:1"
     d="m 340.63052,198.13786 c -28.46461,0 -51.42781,22.24653 -51.42781,50.23275 0,22.24545 13.156,39.22794 36.83664,48.07826 23.44145,8.85034 25.35489,9.5675 30.61726,13.63387 5.26236,4.06637 8.13193,10.76475 8.13193,17.94071 0,12.67752 -9.80547,21.52802 -23.91818,21.52802 -14.59109,0 -22.48506,-7.17533 -23.92024,-22.00563 h -34.20665 c 2.87038,33.48776 27.03111,53.58019 58.12689,53.58019 31.81339,0 56.45006,-24.6373 56.45006,-56.68988 0,-23.91985 -9.80627,-39.46765 -45.68603,-52.86275 -16.74391,-6.21916 -17.2235,-6.45897 -19.61549,-7.89416 -6.45835,-4.06638 -9.8067,-9.56773 -9.80671,-16.0261 0,-10.52473 7.41454,-17.9407 18.17848,-17.9407 11.00312,0 17.70139,6.69824 18.65817,18.65817 h 33.96681 c -1.67439,-31.0958 -23.92052,-50.23275 -52.38513,-50.23275 z m -109.90512,3.10969 v 125.10113 c 0,15.5479 -5.26152,23.20279 -15.78623,23.20279 -8.13277,0 -13.39572,-4.54576 -15.5485,-13.39608 h -32.76964 c 3.10958,29.89979 23.44135,44.97064 49.03558,44.97064 29.6606,0 47.84052,-20.57147 47.84052,-53.82005 V 201.24755 Z"
     id="flowRoot112"
     inkscape:connector-curvature="0" />
</svg>
