<?xml version="1.0" encoding="UTF-8" standalone="no"?>
<svg
   xmlns:dc="http://purl.org/dc/elements/1.1/"
   xmlns:cc="http://creativecommons.org/ns#"
   xmlns:rdf="http://www.w3.org/1999/02/22-rdf-syntax-ns#"
   xmlns:svg="http://www.w3.org/2000/svg"
   xmlns="http://www.w3.org/2000/svg"
   xmlns:sodipodi="http://sodipodi.sourceforge.net/DTD/sodipodi-0.dtd"
   xmlns:inkscape="http://www.inkscape.org/namespaces/inkscape"
   viewBox="0 0 448 512"
   version="1.1"
   id="svg4"
   sodipodi:docname="ff06-go-file.svg"
   inkscape:version="1.0.2 (e86c870879, 2021-01-15)">
  <metadata
     id="metadata10">
    <rdf:RDF>
      <cc:Work
         rdf:about="">
        <dc:format>image/svg+xml</dc:format>
        <dc:type
           rdf:resource="http://purl.org/dc/dcmitype/StillImage" />
        <dc:title />
      </cc:Work>
    </rdf:RDF>
  </metadata>
  <defs
     id="defs8" />
  <sodipodi:namedview
     pagecolor="#ffffff"
     bordercolor="#666666"
     borderopacity="1"
     objecttolerance="10"
     gridtolerance="10"
     guidetolerance="10"
     inkscape:pageopacity="0"
     inkscape:pageshadow="2"
     inkscape:window-width="1280"
     inkscape:window-height="973"
     id="namedview6"
     showgrid="false"
     inkscape:zoom="0.80337765"
     inkscape:cx="52.888866"
     inkscape:cy="288.06913"
     inkscape:window-x="0"
     inkscape:window-y="23"
     inkscape:window-maximized="1"
     inkscape:current-layer="svg4"
     inkscape:document-rotation="0" />
  <path
     id="path26"
     style="stroke-width:0.521211"
     d="m 292.17453,134.82215 c -23.06466,1.82466 -45.01126,6.05559 -60.37095,19.51874 -24.76248,-15.93158 -47.62754,22.32581 -18.5573,31.99303 -7.27122,28.10085 -0.70138,56.74671 -0.0756,85.38891 0.0702,0.005 0.14222,0.004 0.2123,0.0104 0.12494,2.21123 -0.0193,4.41452 -0.18372,6.61784 -0.0192,1.34173 -0.048,2.68394 -0.10211,4.02541 -1.16699,28.93971 -8.77335,46.71024 7.2935,72.71867 2.8419,4.60058 6.36332,8.57966 10.36563,12.01702 -0.36881,0.0393 -0.73844,0.08 -1.12065,0.15718 -5.74271,4.23431 -16.77075,10.46414 -11.36996,18.98802 1.40935,1.41926 1.33225,0.6144 2.24542,1.03085 0.52486,0.93088 2.75341,5.51719 8.57951,2.04332 6.1826,-3.39778 10.35714,-10.08751 17.77345,-11.23522 -0.34956,-0.45665 -0.71403,-0.93182 -1.07576,-1.40236 13.1231,6.1693 28.28735,8.86904 41.87284,9.3552 19.26488,0.68875 41.09871,-1.98574 58.44398,-11.36587 7.89817,2.61369 12.98954,19.79757 22.0336,11.51692 9.44064,-5.70923 -1.97536,-17.45399 -8.31006,-21.41101 4.45916,-4.25987 8.28126,-9.26965 11.22706,-15.15448 12.9932,-25.95459 10.83315,-36.80103 8.97756,-65.49865 0.65026,0.23205 1.45008,0.55155 2.48629,1.26764 3.71466,2.56644 11.91686,6.36631 12.31505,-1.84329 4.40789,-2.04939 0.18534,-7.27207 -2.06577,-8.90815 -3.83161,-2.78361 -8.75975,-4.1001 -13.50921,-4.05808 -1.21881,-29.36937 1.41099,-59.11491 -6.18509,-87.38528 28.51086,-10.03796 6.19458,-49.09229 -18.57159,-31.85014 -16.25539,-14.00715 -38.7383,-16.53643 -62.32854,-16.53643 z m -78.97521,143.52873 c 0.0317,-2.20945 0.0197,-4.4183 -0.0285,-6.62805 -5.27372,-0.43131 -10.9773,0.83834 -15.29125,3.97234 -2.25164,1.63607 -6.47367,6.85671 -2.06578,8.90612 0.3982,8.20959 8.60038,4.41176 12.31506,1.84531 3.526,-2.43665 4.55682,-0.41086 4.86642,-5.21956 0.0615,-0.9581 1.16525,-2.87616 0.20412,-2.87616 z M 324.87384,164.20846 c 10.82962,-0.21988 29.95791,11.82036 32.83199,31.06016 5.0239,33.63115 -58.50863,41.80113 -64.15752,8.96327 -1.05604,-17.12324 6.68523,-39.52317 31.32553,-40.02343 z m -35.74083,37.92707 c 1.72522,28.67703 -59.94154,36.651 -63.90849,7.40781 -3.3602,-24.77034 19.52914,-42.36102 33.53435,-42.25981 21.54752,-1.44587 29.46977,19.82598 30.37414,34.852 z m 76.33378,-43.90395 c 2.19849,-0.0459 4.15802,0.89325 5.4788,3.39057 2.53622,4.79566 -2.45884,14.11383 -4.65208,9.96759 l -6.2055,-11.73126 c 1.8142,-0.95955 3.66885,-1.59126 5.37878,-1.6269 z m -148.56253,4.1683 c 1.70992,0.0356 6.33828,-0.18732 5.37877,1.6269 l -6.2055,11.73329 c -2.19294,4.14641 -7.18625,-5.17192 -4.65004,-9.96758 1.32078,-2.49731 3.27828,-3.43844 5.47677,-3.39261 z m 77.90352,61.81413 c 4.77079,0.0567 9.34605,2.04035 10.41871,6.02791 0.31916,1.18672 0.17681,2.25077 -0.30007,3.19257 6.6706,3.13205 14.17804,9.28375 8.35293,15.59336 -2.93028,3.17387 -5.89801,2.66568 -9.05718,1.46972 0.0975,4.11936 0.91566,8.67952 0.14493,13.01522 -1.08984,2.05983 -3.22754,2.27649 -5.07054,3.10887 -2.54871,-0.39977 -4.69146,-2.0721 -5.71356,-4.45612 -0.61556,-4.87845 0.12589,-9.61581 0.35519,-14.47881 -0.14633,0.006 -0.30173,0.035 -0.45112,0.049 -0.24565,4.75413 -0.94131,9.39398 -0.33885,14.16854 -8.63565,11.37663 -13.79469,-2.53765 -11.51284,-11.00863 -2.59701,0.2734 -4.92132,-0.38133 -6.51782,-3.27014 -3.14613,-5.69164 1.5021,-12.81083 7.46089,-13.81337 -0.035,-0.14379 -0.0789,-0.28389 -0.0979,-0.43479 -0.26182,-6.12484 6.19343,-9.23624 12.3273,-9.16332 z"
     sodipodi:nodetypes="cccccccccccccccccccccccccccccccccccscsssssscscsscccssscccccccccccccscccc" />
  <g
     id="g40"
     transform="matrix(0.5212109,0,0,0.5212109,207.94656,149.2857)">
    <ellipse
       fill-rule="evenodd"
       clip-rule="evenodd"
       cx="107.324"
       cy="95.403999"
       rx="14.829"
       ry="16.062"
       id="ellipse36" />
    <ellipse
       fill-rule="evenodd"
       clip-rule="evenodd"
       fill="#ffffff"
       cx="114.069"
       cy="99.028999"
       rx="3.4960001"
       ry="4.0819998"
       id="ellipse38" />
  </g>
  <g
     id="g46"
     transform="matrix(0.5212109,0,0,0.5212109,207.94656,149.2857)">
    <ellipse
       fill-rule="evenodd"
       clip-rule="evenodd"
       cx="231.571"
       cy="91.403999"
       rx="14.582"
       ry="16.062"
       id="ellipse42" />
    <ellipse
       fill-rule="evenodd"
       clip-rule="evenodd"
       fill="#ffffff"
       cx="238.20399"
       cy="95.028999"
       rx="3.438"
       ry="4.0819998"
       id="ellipse44" />
  </g>
  <g
     id="g54"
     transform="matrix(0.49870108,0,0,0.49870108,194.80873,123.32412)" />
</svg>
