<?xml version="1.0" encoding="UTF-8" standalone="no"?>
<svg
   xmlns:dc="http://purl.org/dc/elements/1.1/"
   xmlns:cc="http://creativecommons.org/ns#"
   xmlns:rdf="http://www.w3.org/1999/02/22-rdf-syntax-ns#"
   xmlns:svg="http://www.w3.org/2000/svg"
   xmlns="http://www.w3.org/2000/svg"
   xmlns:sodipodi="http://sodipodi.sourceforge.net/DTD/sodipodi-0.dtd"
   xmlns:inkscape="http://www.inkscape.org/namespaces/inkscape"
   viewBox="0 0 448 512"
   version="1.1"
   id="svg4"
   sodipodi:docname="ff11-rust-file.svg"
   inkscape:version="0.92.4 (5da689c313, 2019-01-14)">
  <metadata
     id="metadata10">
    <rdf:RDF>
      <cc:Work
         rdf:about="">
        <dc:format>image/svg+xml</dc:format>
        <dc:type
           rdf:resource="http://purl.org/dc/dcmitype/StillImage" />
        <dc:title />
      </cc:Work>
    </rdf:RDF>
  </metadata>
  <defs
     id="defs8" />
  <sodipodi:namedview
     pagecolor="#ffffff"
     bordercolor="#666666"
     borderopacity="1"
     objecttolerance="10"
     gridtolerance="10"
     guidetolerance="10"
     inkscape:pageopacity="0"
     inkscape:pageshadow="2"
     inkscape:window-width="1280"
     inkscape:window-height="970"
     id="namedview6"
     showgrid="false"
     inkscape:zoom="1.0574276"
     inkscape:cx="325.10127"
     inkscape:cy="119.75479"
     inkscape:window-x="0"
     inkscape:window-y="24"
     inkscape:window-maximized="1"
     inkscape:current-layer="svg4" />
  <path
     style="color:#000000;clip-rule:nonzero;display:inline;overflow:visible;visibility:visible;opacity:1;isolation:auto;mix-blend-mode:normal;color-interpolation:sRGB;color-interpolation-filters:linearRGB;solid-color:#000000;solid-opacity:1;fill:#000000;fill-opacity:0.97647059;fill-rule:nonzero;stroke:none;stroke-width:2.43262291;stroke-linecap:butt;stroke-linejoin:miter;stroke-miterlimit:4;stroke-dasharray:none;stroke-dashoffset:0;stroke-opacity:1;color-rendering:auto;image-rendering:auto;shape-rendering:auto;text-rendering:auto;enable-background:accumulate"
     d="M 284.1543 133.74219 C 283.50121 133.73689 253.49017 190.83504 252.88477 191.08008 C 252.27936 191.32511 191.00071 171.17475 190.53516 171.63281 C 190.06961 172.09087 209.22357 233.68771 208.96875 234.28906 C 208.71393 234.89041 151.13615 263.97191 151.13086 264.625 C 151.12556 265.27809 208.22371 295.28913 208.46875 295.89453 C 208.71379 296.49994 188.56342 357.77859 189.02148 358.24414 C 189.47955 358.70969 251.07638 339.55573 251.67773 339.81055 C 252.27909 340.06537 281.36058 397.64314 282.01367 397.64844 C 282.66676 397.65373 312.6778 340.55363 313.2832 340.30859 C 313.88861 340.06356 375.16726 360.21392 375.63281 359.75586 C 376.09836 359.2978 356.9444 297.70291 357.19922 297.10156 C 357.45404 296.50021 415.03181 267.41872 415.03711 266.76562 C 415.0424 266.11253 357.9423 236.1015 357.69727 235.49609 C 357.45223 234.89069 377.60259 173.61203 377.14453 173.14648 C 376.68647 172.68094 315.09159 191.8349 314.49023 191.58008 C 313.88888 191.32526 284.80739 133.74748 284.1543 133.74219 z M 228.35547 217.98828 L 292.33008 217.98828 C 306.11358 217.98828 316.15056 219.45768 321.84375 222.39648 C 329.63443 226.5598 333.98047 232.80532 333.98047 240.15234 C 333.98047 252.39738 324.69089 259.00965 304.01562 262.19336 C 317.19985 265.74442 322.44328 271.25486 324.99023 282.27539 L 326.03906 286.92773 C 327.83691 297.58091 328.88591 297.94727 332.78125 297.94727 C 337.27587 297.94727 339.52401 294.02882 339.67383 286.31445 L 347.76367 286.31445 C 347.76367 299.29419 338.47361 308.23438 322.29297 308.23438 C 309.40839 308.23437 300.7194 303.21323 298.32227 293.66211 C 297.8728 291.82535 296.97371 286.55964 296.22461 278.35547 C 295.02604 265.62064 290.23183 263.90625 279.29492 263.90625 L 270.90625 263.90625 L 270.90625 288.64258 C 270.90625 296.4794 270.90633 296.84521 271.95508 297.94727 C 273.30346 299.17177 276.59799 299.66211 284.38867 299.66211 L 288.28516 299.66211 L 288.28516 306.27539 L 228.35547 306.27539 L 228.35547 299.66211 L 230.60352 299.66211 C 238.39419 299.66211 241.54029 299.17177 242.88867 297.94727 C 243.93742 296.84521 243.9375 296.4794 243.9375 288.64258 L 243.9375 235.62109 C 243.9375 227.78427 243.93742 227.41651 242.88867 226.31445 C 241.54029 225.08995 238.39419 224.59961 230.60352 224.59961 L 228.35547 224.59961 L 228.35547 217.98828 z M 281.54297 224.59961 C 271.95444 224.59961 270.90625 225.45783 270.90625 232.4375 L 270.90625 257.17188 L 279.14648 257.17188 C 299.07264 257.17188 305.36328 253.2536 305.36328 240.76367 C 305.36328 229.62069 299.072 224.59961 285.13867 224.59961 L 281.54297 224.59961 z "
     id="path88" />
</svg>
