<?xml version="1.0" encoding="UTF-8" standalone="no"?>
<svg
   xmlns:dc="http://purl.org/dc/elements/1.1/"
   xmlns:cc="http://creativecommons.org/ns#"
   xmlns:rdf="http://www.w3.org/1999/02/22-rdf-syntax-ns#"
   xmlns:svg="http://www.w3.org/2000/svg"
   xmlns="http://www.w3.org/2000/svg"
   xmlns:sodipodi="http://sodipodi.sourceforge.net/DTD/sodipodi-0.dtd"
   xmlns:inkscape="http://www.inkscape.org/namespaces/inkscape"
   viewBox="0 0 448 512"
   version="1.1"
   id="svg4"
   sodipodi:docname="ff12-jsx-file.svg"
   inkscape:version="0.92.4 (5da689c313, 2019-01-14)">
  <metadata
     id="metadata10">
    <rdf:RDF>
      <cc:Work
         rdf:about="">
        <dc:format>image/svg+xml</dc:format>
        <dc:type
           rdf:resource="http://purl.org/dc/dcmitype/StillImage" />
        <dc:title />
      </cc:Work>
    </rdf:RDF>
  </metadata>
  <defs
     id="defs8" />
  <sodipodi:namedview
     pagecolor="#ffffff"
     bordercolor="#666666"
     borderopacity="1"
     objecttolerance="10"
     gridtolerance="10"
     guidetolerance="10"
     inkscape:pageopacity="0"
     inkscape:pageshadow="2"
     inkscape:window-width="1280"
     inkscape:window-height="970"
     id="namedview6"
     showgrid="false"
     inkscape:zoom="1.7894758"
     inkscape:cx="-34.85858"
     inkscape:cy="205.43955"
     inkscape:window-x="0"
     inkscape:window-y="24"
     inkscape:window-maximized="1"
     inkscape:current-layer="svg4" />
  <path
     style="font-style:normal;font-variant:normal;font-weight:bold;font-stretch:normal;font-size:187.23854065px;line-height:136.00000143%;font-family:'TeX Gyre Adventor';-inkscape-font-specification:'TeX Gyre Adventor Bold';text-align:end;letter-spacing:0px;word-spacing:0px;text-anchor:end;fill:#000000;fill-opacity:1;stroke:none;stroke-width:1.27750635px;stroke-linecap:butt;stroke-linejoin:miter;stroke-opacity:1"
     d="m 340.63086,198.13867 c -28.46461,0 -51.42773,22.2462 -51.42774,50.23242 0,22.24545 13.1553,39.22781 36.83594,48.07813 23.44145,8.85034 25.35482,9.56644 30.61719,13.63281 5.26236,4.06637 8.13281,10.76545 8.13281,17.94141 0,12.67752 -9.80526,21.52734 -23.91797,21.52734 -14.59109,0 -22.48669,-7.17556 -23.92187,-22.00586 h -34.20508 c 2.87038,33.48776 27.03117,53.58203 58.12695,53.58203 31.81339,0 56.44922,-24.63882 56.44922,-56.6914 0,-23.91985 -9.80578,-39.46623 -45.68554,-52.86133 -16.74391,-6.21916 -17.22325,-6.45934 -19.61524,-7.89453 -6.45835,-4.06638 -9.80663,-9.56898 -9.80664,-16.02735 0,-10.52473 7.4138,-17.93945 18.17773,-17.93945 11.00313,0 17.70143,6.69827 18.65821,18.6582 h 33.96679 c -1.67439,-31.0958 -23.92015,-50.23242 -52.38476,-50.23242 z m -109.90625,3.10938 v 125.10156 c 0,15.5479 -5.26045,23.20117 -15.78516,23.20117 -8.13277,0 -13.39605,-4.54421 -15.54883,-13.39453 h -32.76953 c 3.10958,29.89979 23.44093,44.9707 49.03516,44.9707 29.6606,0 47.8418,-20.57173 47.8418,-53.82031 V 201.24805 Z m 166.49219,63.84179 2.09375,2.99219 35.59765,50.35352 -36.69336,51.55273 -2.0957,2.99024 h 3.68945 21.53907 1.19531 l 0.59961,-0.89649 25.02734,-37.69141 25.12696,37.69141 0.5996,0.89649 h 1.19532 21.33789 3.78906 l -2.09375,-2.99024 -36.69336,-51.55273 35.59766,-50.35352 2.09375,-2.99219 H 495.33398 473.69531 472.5 l -0.59961,0.99805 -24.0293,36.49414 -23.63281,-36.49414 -0.59766,-0.99805 h -1.19726 -21.53711 z"
     id="flowRoot112"
     inkscape:connector-curvature="0" />
</svg>
