<?xml version="1.0" encoding="UTF-8" standalone="no"?>
<svg
   xmlns:dc="http://purl.org/dc/elements/1.1/"
   xmlns:cc="http://creativecommons.org/ns#"
   xmlns:rdf="http://www.w3.org/1999/02/22-rdf-syntax-ns#"
   xmlns:svg="http://www.w3.org/2000/svg"
   xmlns="http://www.w3.org/2000/svg"
   xmlns:sodipodi="http://sodipodi.sourceforge.net/DTD/sodipodi-0.dtd"
   xmlns:inkscape="http://www.inkscape.org/namespaces/inkscape"
   viewBox="0 0 448 512"
   version="1.1"
   id="svg4"
   sodipodi:docname="ff13-dart-file.svg"
   inkscape:version="0.92.4 (5da689c313, 2019-01-14)">
  <metadata
     id="metadata10">
    <rdf:RDF>
      <cc:Work
         rdf:about="">
        <dc:format>image/svg+xml</dc:format>
        <dc:type
           rdf:resource="http://purl.org/dc/dcmitype/StillImage" />
        <dc:title />
      </cc:Work>
    </rdf:RDF>
  </metadata>
  <defs
     id="defs8" />
  <sodipodi:namedview
     pagecolor="#ffffff"
     bordercolor="#666666"
     borderopacity="1"
     objecttolerance="10"
     gridtolerance="10"
     guidetolerance="10"
     inkscape:pageopacity="0"
     inkscape:pageshadow="2"
     inkscape:window-width="1280"
     inkscape:window-height="970"
     id="namedview6"
     showgrid="false"
     inkscape:zoom="0.36067299"
     inkscape:cx="286.63044"
     inkscape:cy="-55.22386"
     inkscape:window-x="0"
     inkscape:window-y="24"
     inkscape:window-maximized="1"
     inkscape:current-layer="svg4" />
  <path
     style="font-style:normal;font-variant:normal;font-weight:bold;font-stretch:normal;font-size:187.23854065px;line-height:136.00000143%;font-family:Vazir;-inkscape-font-specification:'Vazir Bold';text-align:end;letter-spacing:0px;word-spacing:0px;text-anchor:end;fill:#000000;fill-opacity:1;stroke:none;stroke-width:1.47471845px;stroke-linecap:butt;stroke-linejoin:miter;stroke-opacity:1"
     d="M 272.46094 167.04102 L 272.46094 241.46484 C 268.05661 236.43133 262.93427 232.52274 257.0918 229.73633 C 251.33921 226.94992 244.73187 225.55664 237.27148 225.55664 C 228.19318 225.55664 220.1028 227.35385 213.00195 230.94922 C 205.9011 234.54459 199.92406 239.62205 195.07031 246.18359 C 190.21657 252.74514 186.4875 260.61111 183.88086 269.7793 C 181.3641 278.94748 180.10547 289.05948 180.10547 300.11523 L 180.10547 302.94531 C 180.10547 313.55164 181.3641 323.39436 183.88086 332.47266 C 186.4875 341.46107 190.21657 349.23728 195.07031 355.79883 C 199.92406 362.36037 205.85622 367.5276 212.86719 371.30273 C 219.96804 374.98798 228.01354 376.83008 237.00195 376.83008 C 245.18141 376.83008 252.32733 375.25727 258.43945 372.11133 C 264.55158 368.8755 269.90028 364.38149 274.48438 358.62891 L 276.37109 374.13477 L 311.56055 374.13477 L 311.56055 167.04102 L 272.46094 167.04102 z M 349.7168 192.38867 L 349.7168 228.25195 L 328.41406 228.25195 L 328.41406 256.83594 L 349.7168 256.83594 L 349.7168 333.82227 C 349.7168 341.5523 350.70614 348.15769 352.68359 353.64062 C 354.66105 359.12356 357.44565 363.57268 361.04102 366.98828 C 364.72627 370.40388 369.13051 372.87627 374.25391 374.4043 C 379.3773 376.02221 385.12994 376.83008 391.51172 376.83008 C 396.36546 376.83008 400.67994 376.47103 404.45508 375.75195 C 408.3201 375.12276 411.87159 374.3149 415.10742 373.32617 L 415.10742 343.79883 C 413.66928 344.06848 411.96183 344.29289 409.98438 344.47266 C 408.09681 344.65242 405.98347 344.74219 403.64648 344.74219 C 401.12973 344.74219 398.92858 344.56266 397.04102 344.20312 C 395.24333 343.7537 393.71541 342.98877 392.45703 341.91016 C 391.19865 340.74166 390.25419 339.16886 389.625 337.19141 C 388.99581 335.21395 388.68164 332.69864 388.68164 329.64258 L 388.68164 256.83594 L 413.625 256.83594 L 413.625 228.25195 L 388.68164 228.25195 L 388.68164 192.38867 L 349.7168 192.38867 z M 247.24805 257.24023 C 253.36017 257.24023 258.48447 258.58863 262.61914 261.28516 C 266.8437 263.8918 270.12395 267.62086 272.46094 272.47461 L 272.46094 330.04688 C 270.12395 334.81074 266.8437 338.5398 262.61914 341.23633 C 258.48447 343.93285 253.27041 345.28125 246.97852 345.28125 C 241.85512 345.28125 237.49576 344.20214 233.90039 342.04492 C 230.39491 339.79782 227.51859 336.78685 225.27148 333.01172 C 223.11426 329.1467 221.54146 324.65269 220.55273 319.5293 C 219.56401 314.4059 219.07031 308.87767 219.07031 302.94531 L 219.07031 300.11523 C 219.07031 294.093 219.56401 288.475 220.55273 283.26172 C 221.63134 278.04844 223.24903 273.50955 225.40625 269.64453 C 227.65335 265.77951 230.57456 262.76855 234.16992 260.61133 C 237.76529 258.36422 242.12465 257.24023 247.24805 257.24023 z "
     id="flowRoot112" />
</svg>
