<?xml version="1.0" encoding="UTF-8" standalone="no"?>
<svg
   xmlns:dc="http://purl.org/dc/elements/1.1/"
   xmlns:cc="http://creativecommons.org/ns#"
   xmlns:rdf="http://www.w3.org/1999/02/22-rdf-syntax-ns#"
   xmlns:svg="http://www.w3.org/2000/svg"
   xmlns="http://www.w3.org/2000/svg"
   xmlns:sodipodi="http://sodipodi.sourceforge.net/DTD/sodipodi-0.dtd"
   xmlns:inkscape="http://www.inkscape.org/namespaces/inkscape"
   viewBox="0 0 448 512"
   version="1.1"
   id="svg4"
   sodipodi:docname="ff15-ex-file.svg"
   inkscape:version="0.92.4 (5da689c313, 2019-01-14)">
  <metadata
     id="metadata10">
    <rdf:RDF>
      <cc:Work
         rdf:about="">
        <dc:format>image/svg+xml</dc:format>
        <dc:type
           rdf:resource="http://purl.org/dc/dcmitype/StillImage" />
        <dc:title />
      </cc:Work>
    </rdf:RDF>
  </metadata>
  <defs
     id="defs8" />
  <sodipodi:namedview
     pagecolor="#ffffff"
     bordercolor="#666666"
     borderopacity="1"
     objecttolerance="10"
     gridtolerance="10"
     guidetolerance="10"
     inkscape:pageopacity="0"
     inkscape:pageshadow="2"
     inkscape:window-width="1280"
     inkscape:window-height="970"
     id="namedview6"
     showgrid="false"
     inkscape:zoom="1.0201373"
     inkscape:cx="192.92776"
     inkscape:cy="140.15039"
     inkscape:window-x="0"
     inkscape:window-y="24"
     inkscape:window-maximized="1"
     inkscape:current-layer="svg4" />
  <path
     style="font-style:normal;font-variant:normal;font-weight:bold;font-stretch:normal;font-size:187.23854065px;line-height:136.00000143%;font-family:Vazir;-inkscape-font-specification:'Vazir Bold';text-align:end;letter-spacing:0px;word-spacing:0px;text-anchor:end;fill:#000000;fill-opacity:1;stroke:none;stroke-width:1.42920661px;stroke-linecap:butt;stroke-linejoin:miter;stroke-opacity:1"
     d="m 252.18528,220.36104 c -9.20779,0 -17.54125,2.00765 -25.00276,6.02268 -7.38211,3.91945 -13.6927,9.41605 -18.93162,16.49014 -5.15955,7.0741 -9.16914,15.53327 -12.02673,25.37965 -2.77822,9.75081 -4.16713,20.50691 -4.16713,32.2652 v 5.59237 c 0,10.41996 1.42864,20.21683 4.28624,29.39405 2.93698,9.08161 7.14523,17.01656 12.62229,23.80387 5.55644,6.78733 12.26256,12.14037 20.12096,16.0598 7.93776,3.91945 16.90877,5.87925 26.91034,5.87925 6.27084,0 12.02514,-0.81133 17.26406,-2.43648 5.3183,-1.52953 10.08105,-3.58503 14.28806,-6.16613 4.20703,-2.67669 7.859,-5.68926 10.95472,-9.03513 3.09572,-3.34586 5.67488,-6.78694 7.73869,-10.32401 l -16.90672,-22.79972 c -3.81013,5.92695 -8.37601,10.32509 -13.69431,13.19297 -5.31829,2.77229 -11.11233,4.15787 -17.38317,4.15787 -4.44514,0 -8.45294,-0.81135 -12.02493,-2.43646 -3.57199,-1.62514 -6.70741,-3.87207 -9.40626,-6.73995 -2.61945,-2.96347 -4.80305,-6.50028 -6.54937,-10.6109 -1.66692,-4.11062 -2.77769,-8.70018 -3.33333,-13.76677 h 82.03587 V 296.6456 c 0,-11.47154 -1.22996,-21.89049 -3.69067,-31.2589 -2.38134,-9.3684 -5.99358,-17.35121 -10.83561,-23.94732 -4.76266,-6.69173 -10.6759,-11.85336 -17.74051,-15.486 -7.06462,-3.72825 -15.24091,-5.59234 -24.52811,-5.59234 z m 67.39228,2.86681 36.55303,75.99983 -38.22059,79.15356 h 37.03127 l 22.86053,-48.75535 22.97965,48.75535 h 36.91037 l -38.2206,-79.15356 36.67214,-75.99983 h -36.79125 l -21.66941,46.31671 -21.19477,-46.31671 z m -67.5114,30.68725 c 3.96888,0 7.38245,0.71563 10.24005,2.14958 2.93698,1.43393 5.31926,3.44159 7.14493,6.02268 1.90507,2.5811 3.29397,5.64153 4.16713,9.17859 0.95252,3.53706 1.46909,7.36096 1.54847,11.47159 v 3.29716 h -47.8651 c 0.55565,-4.77979 1.46774,-9.1301 2.73778,-13.04953 1.27004,-3.91944 2.89735,-7.26483 4.8818,-10.03711 2.06382,-2.86788 4.48582,-5.06694 7.26404,-6.59649 2.8576,-1.62513 6.15016,-2.43647 9.8809,-2.43647 z"
     id="flowRoot112"
     inkscape:connector-curvature="0" />
</svg>
