<?xml version="1.0" encoding="UTF-8" standalone="no"?>
<svg
   xmlns:dc="http://purl.org/dc/elements/1.1/"
   xmlns:cc="http://creativecommons.org/ns#"
   xmlns:rdf="http://www.w3.org/1999/02/22-rdf-syntax-ns#"
   xmlns:svg="http://www.w3.org/2000/svg"
   xmlns="http://www.w3.org/2000/svg"
   xmlns:sodipodi="http://sodipodi.sourceforge.net/DTD/sodipodi-0.dtd"
   xmlns:inkscape="http://www.inkscape.org/namespaces/inkscape"
   viewBox="0 0 448 512"
   version="1.1"
   id="svg4"
   sodipodi:docname="ff16-csharp-file.svg"
   inkscape:version="0.92.4 (5da689c313, 2019-01-14)">
  <metadata
     id="metadata10">
    <rdf:RDF>
      <cc:Work
         rdf:about="">
        <dc:format>image/svg+xml</dc:format>
        <dc:type
           rdf:resource="http://purl.org/dc/dcmitype/StillImage" />
        <dc:title />
      </cc:Work>
    </rdf:RDF>
  </metadata>
  <defs
     id="defs8" />
  <sodipodi:namedview
     pagecolor="#ffffff"
     bordercolor="#666666"
     borderopacity="1"
     objecttolerance="10"
     gridtolerance="10"
     guidetolerance="10"
     inkscape:pageopacity="0"
     inkscape:pageshadow="2"
     inkscape:window-width="1280"
     inkscape:window-height="970"
     id="namedview6"
     showgrid="false"
     inkscape:zoom="0.89473792"
     inkscape:cx="383.215"
     inkscape:cy="296.91493"
     inkscape:window-x="0"
     inkscape:window-y="24"
     inkscape:window-maximized="1"
     inkscape:current-layer="svg4" />
  <path
     style="color:#000000;font-style:normal;font-variant:normal;font-weight:bold;font-stretch:normal;font-size:187.23854065px;line-height:136.00000143%;font-family:'TeX Gyre Adventor';-inkscape-font-specification:'TeX Gyre Adventor Bold';font-variant-ligatures:normal;font-variant-position:normal;font-variant-caps:normal;font-variant-numeric:normal;font-variant-alternates:normal;font-feature-settings:normal;text-indent:0;text-align:end;text-decoration:none;text-decoration-line:none;text-decoration-style:solid;text-decoration-color:#000000;letter-spacing:0px;word-spacing:0px;text-transform:none;writing-mode:lr-tb;direction:ltr;text-orientation:mixed;dominant-baseline:auto;baseline-shift:baseline;text-anchor:end;white-space:normal;shape-padding:0;clip-rule:nonzero;display:inline;overflow:visible;visibility:visible;opacity:1;isolation:auto;mix-blend-mode:normal;color-interpolation:sRGB;color-interpolation-filters:linearRGB;solid-color:#000000;solid-opacity:1;vector-effect:none;fill:#000000;fill-opacity:1;fill-rule:nonzero;stroke:none;stroke-width:8.1764307;stroke-linecap:butt;stroke-linejoin:miter;stroke-miterlimit:4;stroke-dasharray:none;stroke-dashoffset:0;stroke-opacity:1;color-rendering:auto;image-rendering:auto;shape-rendering:auto;text-rendering:auto;enable-background:accumulate"
     d="m 238.61328,174.69531 c -34.01409,0 -61.87109,45.70821 -61.87109,101.52149 0,56.80592 28.21134,102.78906 63.25976,102.78906 24.50067,0 46.12992,-22.52978 55.58985,-58.66016 l 1.91015,-7.30468 h -33.73047 l -0.94336,1.62695 c -8.90913,15.3498 -13.04467,18.22851 -23.28906,18.22851 -19.21733,0 -32.44531,-24.29272 -32.44531,-56.42578 0,-32.60777 11.86757,-55.66601 31.98047,-55.66601 12.58715,0 17.50578,3.83734 24.76953,19.33203 l 0.96094,2.04297 h 32.81054 l -2.05078,-7.40235 c -10.52559,-37.99688 -32.33188,-60.08203 -56.95117,-60.08203 z m 122.36328,4.25391 -11.21289,56.89258 h -38.97851 v 19.00976 h 35.28515 l -9.43554,48.41406 h -36.24219 v 18.73633 h 32.68554 l -10.9414,56.07227 h 19.55664 l 10.94141,-56.07227 h 36.10546 l -10.9414,56.07227 h 19.69336 l 10.9414,-56.07227 h 34.32618 v -18.73633 h -30.76954 l 9.43555,-48.41406 h 31.5918 V 235.8418 h -27.89844 l 11.21289,-56.89258 h -19.69336 l -11.21289,56.89258 h -36.10547 l 11.21485,-56.89258 z m 4.65039,75.90234 h 36.10547 l -9.4375,48.41406 h -36.10351 z"
     id="flowRoot112"
     inkscape:connector-curvature="0" />
</svg>
