<?xml version="1.0" encoding="UTF-8" standalone="no"?>
<svg
   xmlns:dc="http://purl.org/dc/elements/1.1/"
   xmlns:cc="http://creativecommons.org/ns#"
   xmlns:rdf="http://www.w3.org/1999/02/22-rdf-syntax-ns#"
   xmlns:svg="http://www.w3.org/2000/svg"
   xmlns="http://www.w3.org/2000/svg"
   xmlns:sodipodi="http://sodipodi.sourceforge.net/DTD/sodipodi-0.dtd"
   xmlns:inkscape="http://www.inkscape.org/namespaces/inkscape"
   viewBox="0 0 448 512"
   version="1.1"
   id="svg4"
   sodipodi:docname="ff17-crystal-file.svg"
   inkscape:version="0.92.4 (5da689c313, 2019-01-14)">
  <metadata
     id="metadata10">
    <rdf:RDF>
      <cc:Work
         rdf:about="">
        <dc:format>image/svg+xml</dc:format>
        <dc:type
           rdf:resource="http://purl.org/dc/dcmitype/StillImage" />
        <dc:title />
      </cc:Work>
    </rdf:RDF>
  </metadata>
  <defs
     id="defs8" />
  <sodipodi:namedview
     pagecolor="#ffffff"
     bordercolor="#666666"
     borderopacity="1"
     objecttolerance="10"
     gridtolerance="10"
     guidetolerance="10"
     inkscape:pageopacity="0"
     inkscape:pageshadow="2"
     inkscape:window-width="1280"
     inkscape:window-height="970"
     id="namedview6"
     showgrid="false"
     inkscape:zoom="1.9226929"
     inkscape:cx="154.90982"
     inkscape:cy="326.26884"
     inkscape:window-x="0"
     inkscape:window-y="24"
     inkscape:window-maximized="1"
     inkscape:current-layer="svg4" />
  <path
     d="m 397.92782,304.6433 -77.03392,76.87986 c -0.30813,0.30813 -0.77034,0.46219 -1.07847,0.30813 L 214.58709,353.63687 c -0.4622,-0.15406 -0.77033,-0.4622 -0.77033,-0.77034 L 185.46827,247.79227 c -0.15406,-0.46221 0,-0.77034 0.30813,-1.07848 l 77.03393,-76.87986 c 0.30814,-0.30813 0.77034,-0.46219 1.07847,-0.30813 l 105.22834,28.19442 c 0.4622,0.15407 0.77034,0.4622 0.77034,0.77034 l 28.19442,105.07426 c 0.30813,0.46221 0.15406,0.77034 -0.15408,1.07848 z M 294.70237,220.98446 191.32285,248.5626 c -0.15407,0 -0.30814,0.30815 -0.15407,0.46221 l 75.64731,75.49324 c 0.15407,0.15407 0.46221,0.15407 0.46221,-0.15407 l 27.73221,-103.22545 c 0.15407,0 -0.15407,-0.30814 -0.30814,-0.15407 z"
     id="path4"
     inkscape:connector-curvature="0"
     style="stroke-width:1.5406785" />
</svg>
