<?xml version="1.0" encoding="UTF-8" standalone="no"?>
<svg
   xmlns:dc="http://purl.org/dc/elements/1.1/"
   xmlns:cc="http://creativecommons.org/ns#"
   xmlns:rdf="http://www.w3.org/1999/02/22-rdf-syntax-ns#"
   xmlns:svg="http://www.w3.org/2000/svg"
   xmlns="http://www.w3.org/2000/svg"
   xmlns:sodipodi="http://sodipodi.sourceforge.net/DTD/sodipodi-0.dtd"
   xmlns:inkscape="http://www.inkscape.org/namespaces/inkscape"
   inkscape:version="1.0 (4035a4fb49, 2020-05-01)"
   sodipodi:docname="ff19-lua-file.svg"
   id="svg4"
   version="1.1"
   viewBox="0 0 448 512">
  <metadata
     id="metadata10">
    <rdf:RDF>
      <cc:Work
         rdf:about="">
        <dc:format>image/svg+xml</dc:format>
        <dc:type
           rdf:resource="http://purl.org/dc/dcmitype/StillImage" />
        <dc:title />
      </cc:Work>
    </rdf:RDF>
  </metadata>
  <defs
     id="defs8" />
  <sodipodi:namedview
     inkscape:guide-bbox="true"
     showguides="true"
     inkscape:document-rotation="0"
     inkscape:current-layer="g18"
     inkscape:window-maximized="1"
     inkscape:window-y="22"
     inkscape:window-x="0"
     inkscape:cy="183.94736"
     inkscape:cx="282.30177"
     inkscape:zoom="1.2653505"
     showgrid="false"
     id="namedview6"
     inkscape:window-height="975"
     inkscape:window-width="1280"
     inkscape:pageshadow="2"
     inkscape:pageopacity="0"
     guidetolerance="10"
     gridtolerance="10"
     objecttolerance="10"
     borderopacity="1"
     bordercolor="#666666"
     pagecolor="#ffffff" />
  <g
     transform="matrix(0.2348419,0,0,0.2348419,176.32813,174.53139)"
     id="g18">
    <path
       d="m 485.83684,-76.009169 c -244.83838,0 -443.595602,198.757239 -443.595602,443.595639 0,244.83838 198.757222,443.60579 443.595602,443.60579 244.8384,0 443.60582,-198.76741 443.60582,-443.60579 0,-244.8384 -198.76742,-443.595639 -443.60582,-443.595639 z M 669.65089,53.881617 c 71.68691,0 129.8908,58.203893 129.8908,129.890793 0,71.68692 -58.20389,129.90097 -129.8908,129.90097 -71.68691,0 -129.89073,-58.21405 -129.89073,-129.90097 -6e-5,-71.6869 58.20382,-129.890793 129.89073,-129.890793 z M 184.7491,298.23326 h 37.13787 v 258.31396 h 143.74102 v 32.72497 H 184.7491 Z m 521.78486,75.85541 c 51.46753,0 78.67848,19.97288 78.67848,57.10304 v 123.03186 c 0,10.41607 6.36691,16.41856 18.00839,16.41856 1.96068,0 3.5597,0.001 7.23598,-0.85613 v 25.1221 c -10.78369,2.81843 -15.93609,3.54661 -22.7984,3.54661 -21.56736,0 -31.98651,-9.55822 -34.31481,-30.75796 -23.52804,21.56735 -44.71902,30.75796 -71.06539,30.75796 -42.27691,0 -68.62965,-23.89488 -68.62965,-61.88281 0,-27.20428 12.37497,-45.9542 36.76076,-55.88008 12.74437,-5.14672 19.97356,-6.73483 67.02959,-12.73936 26.34647,-3.18609 34.68169,-9.19567 34.68169,-23.16528 v -8.8157 c 0,-19.97428 -16.78722,-31.12484 -46.68727,-31.12484 -31.12565,0 -46.32505,11.51646 -49.14348,37.12764 H 622.719 c 0.85779,-20.70955 4.7812,-32.72386 14.33948,-43.50755 13.96975,-15.56279 39.08513,-24.37806 69.47548,-24.37806 z m -305.73504,6.0028 h 33.08163 v 148.15398 c 0,25.121 16.78396,41.17366 43.13043,41.17366 34.67933,0 57.11326,-27.94163 57.11326,-70.70868 V 380.09147 h 33.08162 v 209.18072 h -29.9019 v -29.16812 c -19.60667,27.57191 -39.08442,38.35064 -69.84238,38.35064 -40.68385,0 -66.66266,-22.30117 -66.66266,-57.10302 z M 752.1206,485.83854 c -11.1513,5.14678 -18.37673,6.74746 -53.5462,11.52662 -35.53708,5.14673 -50.36642,16.41568 -50.36642,38.35066 0,21.19971 15.19482,33.581 41.17368,33.581 19.60668,0 35.90823,-6.37563 49.51033,-18.75239 9.92588,-9.19061 13.22861,-15.92727 13.22861,-27.20114 z"
       style="fill:#000000;stroke-width:1.22543"
       id="path2" />
    <path
       style="fill:#000000;stroke-width:1.22542"
       fill="#000080"
       d="m 1059.3338,-76.13423 c 0,-71.68692 -58.2072,-129.89424 -129.89386,-129.89424 -71.68692,0 -129.89425,58.20732 -129.89425,129.89424 0,71.6869215 58.20733,129.894243 129.89425,129.894243 71.68666,0 129.89386,-58.0847787 129.89386,-129.894243"
       id="path6" />
    <g
       transform="matrix(1.0767109,0,0,1.0767109,-75.111872,-72.234715)"
       id="g14" />
    <path
       fill="none"
       stroke="#808080"
       stroke-width="1.12641"
       stroke-miterlimit="10"
       stroke-dasharray="47.8467"
       d="m 996.96023,107.06568 c 41.05137,80.63245 62.49617,169.84284 62.49617,260.40118 0,316.64785 -256.96971,573.6179 -573.61756,573.6179 -316.64786,0 -573.617862,-256.97005 -573.617862,-573.6179 0,-316.64785 256.970002,-573.61788 573.617862,-573.61788 101.83218,0 201.7037,27.08173 289.44359,78.30418"
       id="path16" />
  </g>
</svg>
