<?xml version="1.0" encoding="UTF-8" standalone="no"?>
<svg
   xmlns:dc="http://purl.org/dc/elements/1.1/"
   xmlns:cc="http://creativecommons.org/ns#"
   xmlns:rdf="http://www.w3.org/1999/02/22-rdf-syntax-ns#"
   xmlns:svg="http://www.w3.org/2000/svg"
   xmlns="http://www.w3.org/2000/svg"
   xmlns:sodipodi="http://sodipodi.sourceforge.net/DTD/sodipodi-0.dtd"
   xmlns:inkscape="http://www.inkscape.org/namespaces/inkscape"
   inkscape:version="1.0 (4035a4fb49, 2020-05-01)"
   sodipodi:docname="ff20-erlang-file.svg"
   id="svg4"
   version="1.1"
   viewBox="0 0 448 512">
  <metadata
     id="metadata10">
    <rdf:RDF>
      <cc:Work
         rdf:about="">
        <dc:format>image/svg+xml</dc:format>
        <dc:type
           rdf:resource="http://purl.org/dc/dcmitype/StillImage" />
        <dc:title />
      </cc:Work>
    </rdf:RDF>
  </metadata>
  <defs
     id="defs8" />
  <sodipodi:namedview
     inkscape:guide-bbox="true"
     showguides="true"
     inkscape:document-rotation="0"
     inkscape:current-layer="g929"
     inkscape:window-maximized="1"
     inkscape:window-y="22"
     inkscape:window-x="0"
     inkscape:cy="234.64423"
     inkscape:cx="387.52215"
     inkscape:zoom="1.2653505"
     showgrid="false"
     id="namedview6"
     inkscape:window-height="975"
     inkscape:window-width="1280"
     inkscape:pageshadow="2"
     inkscape:pageopacity="0"
     guidetolerance="10"
     gridtolerance="10"
     objecttolerance="10"
     borderopacity="1"
     bordercolor="#666666"
     pagecolor="#ffffff" />
  <g
     transform="matrix(0.2348419,0,0,0.2348419,176.32813,174.53139)"
     id="g18">
    <g
       transform="matrix(1.0767109,0,0,1.0767109,-75.111872,-72.234715)"
       id="g14" />
    <g
       id="g929"
       transform="matrix(0.92497099,0,0,0.92497099,-3.0254478,60.196785)">
      <g
         id="g16"
         transform="matrix(4.5562466,0,0,4.5562466,3.5670248,-101.24519)">
        <path
           id="path18"
           d="m 20.08903,179.6084 v -6.38669 H 0.47081188 v 37.86772 H 20.08903 v -6.38796 H 7.7706139 v -10.0366 H 19.632158 v -6.38732 H 7.7706139 v -8.66915 z" />
        <path
           id="path20"
           d="m 53.394376,195.12047 c 4.890614,-0.72617 7.576079,-5.57243 7.75604,-10.49346 -0.179961,-8.05069 -5.398812,-11.38186 -12.774654,-11.40593 H 38.338535 v 37.86772 h 7.299802 v -15.05584 l 9.124752,15.05584 h 9.124753 L 53.394376,195.12048 v 0 z m -7.756673,-15.96768 h 0.912475 c 3.982574,0.14955 6.971565,1.05822 6.843565,5.93109 0.128,4.46479 -2.759604,5.67636 -6.843565,5.47485 h -0.912475 z" />
        <path
           id="path22"
           d="m 86.699089,173.2217 h -7.299168 v 37.86772 h 17.792633 v -6.38796 H 86.699089 Z" />
        <path
           id="path24"
           d="m 134.60404,203.33275 3.19366,7.75604 h 7.75604 l -14.14336,-38.7802 h -5.93109 l -15.05584,38.7802 h 7.7554 l 3.1943,-7.75604 z m -1.82495,-5.93045 h -9.12475 l 4.10614,-14.14337 z" />
        <path
           id="path26"
           d="m 159.2415,211.08943 h 7.75541 v -25.54931 l 20.07509,26.46115 h 5.47422 v -38.77956 h -7.75541 v 25.5493 L 164.71572,172.3086 h -5.47422 z" />
        <path
           id="path28"
           d="m 224.48348,191.01434 v 5.93109 h 8.21228 c -0.17109,4.76641 -4.07192,8.80475 -8.66851,8.66851 -7.25925,0.13624 -10.85656,-6.87905 -10.94971,-13.23089 0.0932,-6.26693 3.63977,-13.58574 10.94971,-13.68713 3.8362,0.10076 7.07928,2.72539 8.66851,5.93109 l 6.38733,-3.19366 c -2.80903,-5.91715 -8.48349,-9.19826 -15.05584,-9.12476 -11.3128,-0.0729 -18.55747,9.2648 -18.70575,20.07446 0.14828,10.54036 7.19082,19.92871 18.24951,20.07446 11.94329,-0.14575 17.46566,-9.68555 17.33703,-20.5307 v -0.91247 z" />
      </g>
      <path
         d="m 963.0923,-99.798227 -0.27465,0.2078 H 153.9625 C 82.500902,-13.039458 40.927401,100.69736 41.045778,233.01367 40.918885,382.65341 91.044565,508.06872 176.71717,598.85154 l -0.10816,0.017 h 791.07408 l 0.31596,0.0426 c 0.0128,-0.0128 0.0298,-0.0255 0.0426,-0.0426 36.89005,-39.51846 69.94635,-86.06143 99.90105,-139.28089 L 901.64057,376.43667 C 843.2369,471.38562 757.82723,558.78906 639.72066,559.37226 467.82983,558.78906 400.29942,411.8057 400.67188,222.61808 h 642.32882 c 0.8575,-21.35896 0.8575,-31.29445 0,-41.5755 4.1883,-112.4498 -25.5903,-206.985698 -79.75787,-280.632627 -0.0507,-0.0685 -0.0992,-0.13924 -0.14947,-0.2078 z m -809.1298,0.2078 c 0.0128,-0.0128 0.0213,-0.0298 0.0341,-0.0426 l -0.11624,0.0426 z m 410.93135,16.633533 c 79.72227,0.17331 137.3209,57.775693 139.27259,143.430978 H 411.06696 c 7.111,-85.655285 74.6446,-143.257758 153.82689,-143.430978 z"
         style="color:#000000;overflow:visible;fill:#000000;stroke:#000000;stroke-width:11.3694"
         id="rect910" />
    </g>
    <g
       transform="matrix(4.5562466,0,0,4.5562466,-42.46884,-165.69538)"
       id="g8"
       style="fill:#a90533" />
  </g>
</svg>
