<?xml version="1.0" encoding="UTF-8" standalone="no"?>
<svg
   xmlns:dc="http://purl.org/dc/elements/1.1/"
   xmlns:cc="http://creativecommons.org/ns#"
   xmlns:rdf="http://www.w3.org/1999/02/22-rdf-syntax-ns#"
   xmlns:svg="http://www.w3.org/2000/svg"
   xmlns="http://www.w3.org/2000/svg"
   xmlns:sodipodi="http://sodipodi.sourceforge.net/DTD/sodipodi-0.dtd"
   xmlns:inkscape="http://www.inkscape.org/namespaces/inkscape"
   viewBox="0 0 512 512"
   version="1.1"
   id="svg4"
   sodipodi:docname="ff20-graphql-file.svg"
   inkscape:version="1.0.2 (e86c870879, 2021-01-15)">
  <metadata
     id="metadata10">
    <rdf:RDF>
      <cc:Work
         rdf:about="">
        <dc:format>image/svg+xml</dc:format>
        <dc:type
           rdf:resource="http://purl.org/dc/dcmitype/StillImage" />
        <dc:title></dc:title>
      </cc:Work>
    </rdf:RDF>
  </metadata>
  <defs
     id="defs8" />
  <sodipodi:namedview
     pagecolor="#ffffff"
     bordercolor="#666666"
     borderopacity="1"
     objecttolerance="10"
     gridtolerance="10"
     guidetolerance="10"
     inkscape:pageopacity="0"
     inkscape:pageshadow="2"
     inkscape:window-width="1280"
     inkscape:window-height="973"
     id="namedview6"
     showgrid="false"
     inkscape:zoom="0.76132515"
     inkscape:cx="255.38965"
     inkscape:cy="422.35046"
     inkscape:window-x="0"
     inkscape:window-y="23"
     inkscape:window-maximized="1"
     inkscape:current-layer="svg4"
     inkscape:document-rotation="0" />
  <g
     id="g68"
     transform="matrix(0.62510372,0,0,0.62510372,167.57979,151.02639)"
     style="fill:#000000">
    <g
       id="g6"
       style="fill:#000000">
      <g
         id="g4"
         style="fill:#000000">
        <rect
           x="122"
           y="-0.40000001"
           transform="matrix(-0.866,-0.5,0.5,-0.866,163.3196,363.3136)"
           fill="#e535ab"
           width="16.6"
           height="320.29999"
           id="rect2"
           style="fill:#000000" />
      </g>
    </g>
    <g
       id="g12"
       style="fill:#000000">
      <g
         id="g10"
         style="fill:#000000">
        <rect
           x="39.799999"
           y="272.20001"
           fill="#e535ab"
           width="320.29999"
           height="16.6"
           id="rect8"
           style="fill:#000000" />
      </g>
    </g>
    <g
       id="g18"
       style="fill:#000000">
      <g
         id="g16"
         style="fill:#000000">
        <rect
           x="37.900002"
           y="312.20001"
           transform="matrix(-0.866,-0.5,0.5,-0.866,83.0693,663.3409)"
           fill="#e535ab"
           width="185"
           height="16.6"
           id="rect14"
           style="fill:#000000" />
      </g>
    </g>
    <g
       id="g24"
       style="fill:#000000">
      <g
         id="g22"
         style="fill:#000000">
        <rect
           x="177.10001"
           y="71.099998"
           transform="matrix(-0.866,-0.5,0.5,-0.866,463.3409,283.0693)"
           fill="#e535ab"
           width="185"
           height="16.6"
           id="rect20"
           style="fill:#000000" />
      </g>
    </g>
    <g
       id="g30"
       style="fill:#000000">
      <g
         id="g28"
         style="fill:#000000">
        <rect
           x="122.1"
           y="-13"
           transform="matrix(-0.5,-0.866,0.866,-0.5,126.7903,232.1221)"
           fill="#e535ab"
           width="16.6"
           height="185"
           id="rect26"
           style="fill:#000000" />
      </g>
    </g>
    <g
       id="g36"
       style="fill:#000000">
      <g
         id="g34"
         style="fill:#000000">
        <rect
           x="109.6"
           y="151.60001"
           transform="matrix(-0.5,-0.866,0.866,-0.5,266.0828,473.3766)"
           fill="#e535ab"
           width="320.29999"
           height="16.6"
           id="rect32"
           style="fill:#000000" />
      </g>
    </g>
    <g
       id="g42"
       style="fill:#000000">
      <g
         id="g40"
         style="fill:#000000">
        <rect
           x="52.5"
           y="107.5"
           fill="#e535ab"
           width="16.6"
           height="185"
           id="rect38"
           style="fill:#000000" />
      </g>
    </g>
    <g
       id="g48"
       style="fill:#000000">
      <g
         id="g46"
         style="fill:#000000">
        <rect
           x="330.89999"
           y="107.5"
           fill="#e535ab"
           width="16.6"
           height="185"
           id="rect44"
           style="fill:#000000" />
      </g>
    </g>
    <g
       id="g54"
       style="fill:#000000">
      <g
         id="g52"
         style="fill:#000000">
        <rect
           x="262.39999"
           y="240.10001"
           transform="matrix(-0.5,-0.866,0.866,-0.5,126.7953,714.2875)"
           fill="#e535ab"
           width="14.5"
           height="160.89999"
           id="rect50"
           style="fill:#000000" />
      </g>
    </g>
    <path
       fill="#e535ab"
       d="m 369.5,297.9 c -9.6,16.7 -31,22.4 -47.7,12.8 -16.7,-9.6 -22.4,-31 -12.8,-47.7 9.6,-16.7 31,-22.4 47.7,-12.8 16.8,9.7 22.5,31 12.8,47.7"
       id="path56"
       style="fill:#000000" />
    <path
       fill="#e535ab"
       d="m 90.9,137 c -9.6,16.7 -31,22.4 -47.7,12.8 -16.7,-9.6 -22.4,-31 -12.8,-47.7 9.6,-16.7 31,-22.4 47.7,-12.8 16.7,9.7 22.4,31 12.8,47.7"
       id="path58"
       style="fill:#000000" />
    <path
       fill="#e535ab"
       d="m 30.5,297.9 c -9.6,-16.7 -3.9,-38 12.8,-47.7 16.7,-9.6 38,-3.9 47.7,12.8 9.6,16.7 3.9,38 -12.8,47.7 -16.8,9.6 -38.1,3.9 -47.7,-12.8"
       id="path60"
       style="fill:#000000" />
    <path
       fill="#e535ab"
       d="m 309.1,137 c -9.6,-16.7 -3.9,-38 12.8,-47.7 16.7,-9.6 38,-3.9 47.7,12.8 9.6,16.7 3.9,38 -12.8,47.7 -16.7,9.6 -38.1,3.9 -47.7,-12.8"
       id="path62"
       style="fill:#000000" />
    <path
       fill="#e535ab"
       d="m 200,395.8 c -19.3,0 -34.9,-15.6 -34.9,-34.9 0,-19.3 15.6,-34.9 34.9,-34.9 19.3,0 34.9,15.6 34.9,34.9 0,19.2 -15.6,34.9 -34.9,34.9"
       id="path64"
       style="fill:#000000" />
    <path
       fill="#e535ab"
       d="m 200,74 c -19.3,0 -34.9,-15.6 -34.9,-34.9 0,-19.3 15.6,-34.9 34.9,-34.9 19.3,0 34.9,15.6 34.9,34.9 0,19.3 -15.6,34.9 -34.9,34.9"
       id="path66"
       style="fill:#000000" />
  </g>
</svg>
