<?xml version="1.0" encoding="UTF-8" standalone="no"?>
<svg
   xmlns:dc="http://purl.org/dc/elements/1.1/"
   xmlns:cc="http://creativecommons.org/ns#"
   xmlns:rdf="http://www.w3.org/1999/02/22-rdf-syntax-ns#"
   xmlns:svg="http://www.w3.org/2000/svg"
   xmlns="http://www.w3.org/2000/svg"
   xmlns:sodipodi="http://sodipodi.sourceforge.net/DTD/sodipodi-0.dtd"
   xmlns:inkscape="http://www.inkscape.org/namespaces/inkscape"
   viewBox="0 0 512 512"
   version="1.1"
   id="svg4"
   sodipodi:docname="ff22-sass-file.svg"
   inkscape:version="1.0.2 (e86c870879, 2021-01-15)">
  <metadata
     id="metadata10">
    <rdf:RDF>
      <cc:Work
         rdf:about="">
        <dc:format>image/svg+xml</dc:format>
        <dc:type
           rdf:resource="http://purl.org/dc/dcmitype/StillImage" />
        <dc:title />
      </cc:Work>
    </rdf:RDF>
  </metadata>
  <defs
     id="defs8" />
  <sodipodi:namedview
     pagecolor="#ffffff"
     bordercolor="#666666"
     borderopacity="1"
     objecttolerance="10"
     gridtolerance="10"
     guidetolerance="10"
     inkscape:pageopacity="0"
     inkscape:pageshadow="2"
     inkscape:window-width="1280"
     inkscape:window-height="975"
     id="namedview6"
     showgrid="false"
     inkscape:zoom="0.53833818"
     inkscape:cx="407.1968"
     inkscape:cy="193.90677"
     inkscape:window-x="0"
     inkscape:window-y="23"
     inkscape:window-maximized="1"
     inkscape:current-layer="g68"
     inkscape:document-rotation="0" />
  <g
     id="g68"
     transform="matrix(0.62510372,0,0,0.62510372,167.57979,151.02639)"
     style="fill:#000000">
    <path
       d="m 207.4113,254.44546 c -6.6181,3.60227 -20.94335,11.39319 -36.02258,19.68676 -5.78036,3.18339 -11.72828,6.45056 -17.3411,9.55017 -0.41887,-0.41886 -0.75396,-0.83773 -1.17282,-1.25659 C 122.88391,250.42433 67.509668,227.80551 69.855325,184.82975 70.693057,169.16413 76.138334,128.03136 176.33136,78.102395 258.42931,37.220964 324.10769,48.4466 335.4171,73.411091 351.66915,109.0148 300.31603,175.27958 215.03468,184.82975 c -32.50409,3.60226 -49.59388,-8.96376 -53.86631,-13.65508 -4.43999,-4.94262 -5.11018,-5.19395 -6.78566,-4.27243 -2.76452,1.50791 -1.00528,5.86413 0,8.46111 2.51321,6.6181 12.98489,18.34637 30.82863,24.21053 15.66563,5.11017 53.78253,7.95847 99.85793,-9.88528 51.77198,-19.93808 92.067,-75.47985 80.25495,-121.974105 C 353.26084,20.466278 274.93268,4.968192 200.7932,31.273049 156.6446,46.938679 108.89375,71.568074 74.546635,103.65329 33.74898,141.85397 27.214651,175.11203 29.895401,189.01841 c 9.550164,49.34257 77.574199,81.51157 104.800559,105.30322 -1.34037,0.75395 -2.59698,1.42414 -3.76981,2.09432 -13.65506,6.78566 -65.510821,33.92825 -78.4957,62.57876 -14.660349,32.50409 2.429429,55.79312 13.655068,58.97649 35.017292,9.71772 70.872322,-7.79093 90.140202,-36.5252 19.2679,-28.73429 16.92224,-66.2648 8.04226,-83.35457 -0.0837,-0.25133 -0.25132,-0.41887 -0.33509,-0.6702 3.51849,-2.09433 7.12073,-4.18866 10.72299,-6.283 6.95321,-4.1049 13.73884,-7.8747 19.68676,-11.14187 z m -75.9825,116.44507 c -15.41432,16.83848 -37.027859,23.20524 -46.326715,17.84374 -9.969038,-5.78036 -6.031681,-30.5773 12.984884,-48.50481 11.560731,-10.89054 26.472411,-20.94336 36.357671,-27.1426 2.26188,-1.34036 5.52904,-3.35092 9.55018,-5.78035 0.67017,-0.41888 1.00527,-0.58643 1.00527,-0.58643 0.75396,-0.50263 1.5917,-0.92149 2.42942,-1.42414 6.9532,25.46712 0.25133,47.91841 -16.00071,65.59459 z"
       id="path2"
       style="stroke-width:0.837728"
       sodipodi:nodetypes="cccccccccccccccccccccsccccccccccccc" />
  </g>
</svg>
