<?xml version="1.0" encoding="UTF-8" standalone="no"?>
<svg
   xmlns:dc="http://purl.org/dc/elements/1.1/"
   xmlns:cc="http://creativecommons.org/ns#"
   xmlns:rdf="http://www.w3.org/1999/02/22-rdf-syntax-ns#"
   xmlns:svg="http://www.w3.org/2000/svg"
   xmlns="http://www.w3.org/2000/svg"
   xmlns:sodipodi="http://sodipodi.sourceforge.net/DTD/sodipodi-0.dtd"
   xmlns:inkscape="http://www.inkscape.org/namespaces/inkscape"
   viewBox="0 0 512 512"
   version="1.1"
   id="svg4"
   sodipodi:docname="ff24-handlebars-file.svg"
   inkscape:version="1.0.2 (e86c870879, 2021-01-15)">
  <metadata
     id="metadata10">
    <rdf:RDF>
      <cc:Work
         rdf:about="">
        <dc:format>image/svg+xml</dc:format>
        <dc:type
           rdf:resource="http://purl.org/dc/dcmitype/StillImage" />
      </cc:Work>
    </rdf:RDF>
  </metadata>
  <defs
     id="defs8" />
  <sodipodi:namedview
     pagecolor="#ffffff"
     bordercolor="#666666"
     borderopacity="1"
     objecttolerance="10"
     gridtolerance="10"
     guidetolerance="10"
     inkscape:pageopacity="0"
     inkscape:pageshadow="2"
     inkscape:window-width="857"
     inkscape:window-height="480"
     id="namedview6"
     showgrid="false"
     inkscape:zoom="0.6757816"
     inkscape:cx="346.85199"
     inkscape:cy="233.18341"
     inkscape:window-x="210"
     inkscape:window-y="160"
     inkscape:window-maximized="0"
     inkscape:current-layer="svg4"
     inkscape:document-rotation="0" />
  <path
     d="m 252.33392,210.78635 c 9.17851,-0.0541 18.59111,3.53621 25.72497,11.62591 3.65562,4.03395 6.60838,9.09502 9.1161,14.48368 4.51216,-9.94357 11.10301,-18.3925 19.23057,-22.46511 9.90405,-5.0688 21.09883,-4.7187 30.98588,0.24957 8.63602,4.29829 16.18703,11.78899 23.0352,20.02703 5.35735,6.44743 10.31506,13.50228 15.83226,19.70857 2.90738,3.21563 6.03134,6.2288 9.60703,7.89496 4.75195,2.2117 10.37228,0.12513 13.77059,-4.86634 3.14716,-4.67159 2.95276,-12.74652 -0.51412,-17.01316 -2.20452,-2.59346 -5.9741,-2.07182 -7.53403,1.38495 -1.36448,2.7418 -0.59921,6.15989 0.46927,8.81521 -2.8393,-2.82615 -5.68325,-6.7666 -5.67243,-11.90571 -0.58786,-5.94125 2.6449,-11.18229 6.5171,-13.26113 7.55671,-4.11972 17.03224,-0.56805 21.80173,8.50307 4.58641,8.46441 4.9515,19.59116 4.1522,29.67463 -0.96534,9.57799 -4.89478,18.51764 -10.72088,24.06169 -8.1786,7.95823 -18.54575,10.42584 -28.40957,10.255 -9.48121,-0.35081 -18.86546,-3.27046 -27.64998,-8.09883 -14.69003,-8.05102 -28.43795,-19.17848 -43.60808,-25.60975 -5.03195,-2.66305 -10.38363,-4.10354 -15.76418,-4.54786 -4.28372,-0.0387 -8.34467,-0.31143 -12.38859,0.0626 -4.935,0.64679 -9.84113,2.02472 -14.46159,4.49232 -15.42694,6.54165 -29.38059,17.9489 -44.35063,26.0161 -12.64024,6.70403 -26.64494,9.81914 -40.06125,6.09662 -7.50514,-2.07111 -14.97624,-6.59507 -20.04223,-14.65452 -4.33528,-6.85239 -6.41396,-16.02473 -6.20925,-25.01077 -0.23979,-8.47988 1.12521,-17.48913 5.23771,-24.09262 3.82632,-6.25973 9.98966,-9.43669 15.90703,-8.73578 3.8093,0.24113 7.67067,2.50699 10.02369,6.68856 1.85077,3.30914 1.96473,7.84154 1.15357,11.71098 -0.98803,3.48066 -3.02701,6.19856 -5.24286,8.28513 1.13087,-2.60118 1.8162,-6.03475 0.47957,-8.75265 -1.645,-3.62056 -5.6946,-3.98614 -7.8362,-1.01234 -2.6387,3.6993 -3.19306,9.74179 -1.42223,14.27349 1.91883,4.75032 5.889,7.45977 9.73234,8.01235 5.81474,0.68545 10.85806,-4.22798 15.12475,-8.99308 8.8299,-10.36467 16.78007,-22.22328 26.57582,-30.99139 8.0765,-7.38176 17.59176,-12.37321 27.4102,-12.31064 z"
     fill="#423426"
     id="path2"
     style="fill:#000000;stroke-width:0.602107" />
</svg>
