<?xml version="1.0" encoding="UTF-8" standalone="no"?>
<svg
   viewBox="0 0 448 512"
   version="1.1"
   id="svg4"
   sodipodi:docname="ff26-jupyter-file.svg"
   inkscape:version="1.1.1 (3bf5ae0d25, 2021-09-20)"
   xmlns:inkscape="http://www.inkscape.org/namespaces/inkscape"
   xmlns:sodipodi="http://sodipodi.sourceforge.net/DTD/sodipodi-0.dtd"
   xmlns="http://www.w3.org/2000/svg"
   xmlns:svg="http://www.w3.org/2000/svg"
   xmlns:rdf="http://www.w3.org/1999/02/22-rdf-syntax-ns#"
   xmlns:cc="http://creativecommons.org/ns#"
   xmlns:dc="http://purl.org/dc/elements/1.1/">
  <metadata
     id="metadata10">
    <rdf:RDF>
      <cc:Work
         rdf:about="">
        <dc:format>image/svg+xml</dc:format>
        <dc:type
           rdf:resource="http://purl.org/dc/dcmitype/StillImage" />
      </cc:Work>
    </rdf:RDF>
  </metadata>
  <defs
     id="defs8" />
  <sodipodi:namedview
     pagecolor="#ffffff"
     bordercolor="#666666"
     borderopacity="1"
     objecttolerance="10"
     gridtolerance="10"
     guidetolerance="10"
     inkscape:pageopacity="0"
     inkscape:pageshadow="2"
     inkscape:window-width="1280"
     inkscape:window-height="975"
     id="namedview6"
     showgrid="false"
     inkscape:zoom="1.1783202"
     inkscape:cx="242.7184"
     inkscape:cy="208.34744"
     inkscape:window-x="0"
     inkscape:window-y="23"
     inkscape:window-maximized="1"
     inkscape:current-layer="svg4"
     inkscape:pagecheckerboard="0" />
  <path
     id="path2"
     style="stroke-width:0.453561"
     d="m 226.54096,141.21829 c -12.01934,0 -21.7702,9.75084 -21.7702,21.77021 v 200.6827 c 0,12.01934 9.75086,21.77021 21.7702,21.77021 h 145.1385 c 12.01936,0 21.7721,-9.75087 21.7721,-21.77021 v -27.77209 h 9.07139 c 2.99351,0 5.44208,-2.44858 5.44208,-5.44209 v -18.14278 c 0,-2.99351 -2.44857,-5.44208 -5.44208,-5.44208 h -9.07139 v -29.02883 h 9.07139 c 2.99351,0 5.44208,-2.44857 5.44208,-5.44209 v -18.14278 c 0,-2.9935 -2.44857,-5.44208 -5.44208,-5.44208 h -9.07139 v -29.02883 h 9.07139 c 2.99351,0 5.44208,-2.44859 5.44208,-5.44209 v -18.14279 c 0,-2.99349 -2.44857,-5.44207 -5.44208,-5.44207 h -9.07139 v -27.7721 c 0,-12.01937 -9.75274,-21.77021 -21.7721,-21.77021 z m 71.05102,46.65976 c 6.03092,-0.0166 12.21535,0.44826 18.14279,1.42514 9.60311,1.62258 8.19161,8.80757 8.19161,18.41069 v 31.03163 c 0,9.86797 1.6433,9.84476 -8.19161,9.84476 h -35.3659 c -12.02045,0 -30.25634,-1.90725 -30.25634,9.78205 v 39.21373 h -4.01696 c -10.29851,0 -16.29116,-7.48299 -18.80785,-17.94708 -3.37765,-14.07353 -3.24518,-22.48505 0,-35.96253 2.81471,-11.75553 11.82133,-17.94708 22.11985,-17.94708 h 48.67846 v -4.50529 h -35.4001 v -13.47598 c 0,-10.23229 2.71532,-15.76348 17.68294,-18.41261 5.31482,-0.94374 11.19219,-1.44087 17.22311,-1.45743 z m -19.4406,10.86325 c -3.67568,0 -6.62321,3.01319 -6.65629,6.75509 0,3.70879 2.98061,6.72089 6.65629,6.72089 3.67567,0 6.65438,-3.0121 6.65438,-6.72089 10e-6,-3.70878 -3.01183,-6.75509 -6.65438,-6.75509 z m 70.8192,26.98806 h 3.78703 c 10.29851,0 15.13315,7.7148 17.68294,17.94708 3.54321,14.20599 3.70878,24.86928 0,35.96253 -3.57634,10.76211 -7.38443,17.94708 -17.68294,17.94708 h -53.04885 v 4.50339 h 35.33169 v 13.47788 c 0,10.19917 -8.77522,15.39836 -17.68294,17.98127 -9.00497,1.35721 -21.68133,1.05586 -34.00918,0 -9.33819,-2.74848 -9.54643,-8.37815 -9.54643,-17.98127 v -30.99741 c 0,-9.70246 -1.47962,-8.48994 8.18972,-8.48994 h 35.36589 c 11.78865,0 31.61307,1.94033 31.61307,-10.2457 z m -29.39368,85.33457 c -3.64256,0 -6.62321,2.98088 -6.65628,6.72279 0,3.70878 3.01372,6.75509 6.65628,6.75509 3.67568,0 6.65629,-3.01319 6.65629,-6.75509 0,-3.7088 -2.98061,-6.72279 -6.65629,-6.72279 z"
     sodipodi:nodetypes="sssssscssssccssssccsssscsssscssssscsccscccscsscssscsccscccsccssssscscsss" />
</svg>
