<?xml version="1.0" encoding="UTF-8" standalone="no"?>
<svg
   viewBox="0 0 448 512"
   version="1.1"
   id="svg4"
   sodipodi:docname="ff27-jenkinsfile-file.svg"
   inkscape:version="1.1.1 (3bf5ae0d25, 2021-09-20)"
   xmlns:inkscape="http://www.inkscape.org/namespaces/inkscape"
   xmlns:sodipodi="http://sodipodi.sourceforge.net/DTD/sodipodi-0.dtd"
   xmlns="http://www.w3.org/2000/svg"
   xmlns:svg="http://www.w3.org/2000/svg"
   xmlns:rdf="http://www.w3.org/1999/02/22-rdf-syntax-ns#"
   xmlns:cc="http://creativecommons.org/ns#"
   xmlns:dc="http://purl.org/dc/elements/1.1/">
  <metadata
     id="metadata10">
    <rdf:RDF>
      <cc:Work
         rdf:about="">
        <dc:format>image/svg+xml</dc:format>
        <dc:type
           rdf:resource="http://purl.org/dc/dcmitype/StillImage" />
      </cc:Work>
    </rdf:RDF>
  </metadata>
  <defs
     id="defs8" />
  <sodipodi:namedview
     pagecolor="#ffffff"
     bordercolor="#666666"
     borderopacity="1"
     objecttolerance="10"
     gridtolerance="10"
     guidetolerance="10"
     inkscape:pageopacity="0"
     inkscape:pageshadow="2"
     inkscape:window-width="1280"
     inkscape:window-height="975"
     id="namedview6"
     showgrid="false"
     inkscape:zoom="1.1783202"
     inkscape:cx="289.39502"
     inkscape:cy="154.03283"
     inkscape:window-x="0"
     inkscape:window-y="23"
     inkscape:window-maximized="1"
     inkscape:current-layer="path130"
     inkscape:pagecheckerboard="0" />
  <g
     id="path130">
    <path
       id="path10857"
       style="color:#000000;fill:#000000;fill-rule:evenodd;stroke-width:7.27681;-inkscape-stroke:none"
       d="m 306.06235,136.24973 -3.70431,0.072 c -13.87615,0.26025 -27.46093,2.54731 -38.95844,6.77869 -8.13879,2.99482 -16.28789,5.74395 -23.90713,10.2166 -9.44646,5.54624 -19.47162,10.28428 -28.10825,16.73607 -8.24666,6.16048 -15.12483,14.19969 -18.42085,25.58831 -7.18934,3.80562 -12.04259,10.38996 -14.79573,18.35604 -2.95161,8.54036 -3.81947,18.65307 -3.45593,29.37902 0.0895,2.64021 0.75149,5.05527 1.20241,7.20706 0.4511,2.15286 0.63663,3.99304 0.44638,4.9427 h -0.003 v 0.003 c 0.0572,-0.28683 -0.35852,0.69485 -1.05837,1.61998 -0.699,0.92399 -1.51629,1.55259 -2.28236,3.38393 -7.44714,17.76006 -1.72473,39.57716 6.80028,52.07659 4.77254,6.99424 12.55762,13.08668 22.60036,15.4617 0.66657,5.5354 2.05914,10.72863 4.61872,16.34367 1.26752,2.78165 3.34403,5.32243 4.75191,7.87665 1.30119,2.36071 1.62666,4.0311 1.38596,4.85991 0.0636,-0.0459 0.0703,-0.0109 -0.0397,0.21601 0.0259,-0.0538 0.0208,-0.15134 0.0397,-0.21601 -0.14254,0.10283 -0.64961,0.70291 -1.39676,1.24198 -1.09519,0.79016 -2.62248,1.74645 -4.24433,2.69994 -3.24368,1.90701 -6.79649,3.77444 -8.83422,4.9967 -22.21472,12.11555 144.91552,35.52373 207.09326,-0.40304 l -0.003,-0.003 c -1.92165,-1.8531 -5.91473,-4.98135 -9.76301,-8.38425 -1.92413,-1.70145 -3.76075,-3.42389 -5.0723,-4.84911 -0.98077,-1.06577 -1.57733,-2.18581 -1.75678,-2.38674 -0.003,-0.008 -0.0343,0.17233 -0.0397,0.14756 -0.0361,-0.17718 -0.0196,-0.21295 0.0397,-0.14756 0.0393,0.079 0.0144,-0.46678 0.39242,-1.4832 0.41582,-1.11764 1.13891,-2.56979 1.97994,-4.0787 1.68202,-3.0178 3.78021,-6.14889 5.04352,-8.78384 h -0.003 c 3.18241,-6.62736 5.32466,-14.36214 6.78948,-19.50441 v -0.003 c 11.14625,-39.1844 12.53953,-92.26683 -3.82313,-125.34237 -6.51754,-13.17985 -23.03397,-29.40328 -33.85376,-37.58684 -15.38875,-11.63854 -37.701,-16.64831 -59.65803,-16.80088 z m -1.79995,18.04646 c 17.37365,-0.17252 37.31384,6.11185 50.47823,13.53933 8.21519,4.63556 15.04521,13.1927 21.63556,21.76516 -3.0212,0.24168 -5.8226,1.06704 -8.20783,2.51637 -4.69308,2.85162 -7.51782,8.43548 -6.38989,14.43212 l 1.20958,6.43307 4.82392,-4.42072 c 3.54269,-3.24686 8.24276,-3.33312 13.23334,-1.39677 4.99059,1.93636 9.68624,6.12788 11.54498,9.85661 3.00989,6.03504 3.75145,15.55607 4.29829,25.71431 -2.81696,-5.32793 -5.44417,-10.99556 -8.24383,-16.81168 l -0.94678,-1.96918 -2.18515,-0.0899 c -0.30054,-0.0126 -0.58141,-0.0189 -0.83517,-0.0287 l 3.49552,3.63596 -7.27186,-0.21601 c -0.007,0.0787 0.0109,0.13769 0.008,0.21601 h -0.0144 v 3.49551 l 0.15834,0.008 c 0.31495,6.50692 2.16843,11.38828 4.00672,15.8433 -1.22373,0.24381 -1.98135,0.5757 -3.72591,0.67319 -3.12344,0.17449 -6.6568,0.13194 -10.06903,1.62357 l -2.12395,0.92878 -0.054,2.31475 c -0.10808,4.45035 1.95074,8.30781 5.10831,10.14098 3.15755,1.83322 6.77999,1.93917 10.24899,1.37879 3.46902,-0.56036 6.88638,-1.86008 9.83141,-3.63594 1.12471,-0.67817 2.1082,-1.49016 3.07435,-2.31475 0.2912,17.30535 -1.81538,34.67323 -6.63828,50.45664 l -1.29957,-5.9687 h -2.19596 l -0.48957,0.93599 c -9.95249,4.7416 -17.41373,10.5179 -29.00106,11.63136 l -2.44794,0.23401 -0.0937,0.32398 -2.24997,0.0649 c -0.75948,0.0223 -1.70165,-0.0898 -2.48756,-0.0756 13.2874,-2.38897 23.81295,-8.80173 32.91417,-14.64813 l 1.99797,-1.28156 -0.37079,-2.34716 c 0.0527,0.33464 0.4869,-1.884 1.40036,-4.43871 0.91346,-2.5547 2.08222,-5.82095 1.14836,-9.53981 v -0.003 -0.003 c -0.7414,-2.92797 -2.29831,-3.60007 -3.64672,-4.78072 -1.34838,-1.18066 -2.75922,-2.35149 -3.61432,-3.28671 l -0.003,-0.003 c -9.13801,-9.96538 -21.66147,-25.09507 -26.26519,-35.86959 v -0.008 l -0.003,-0.003 c 0.25012,0.58162 -0.008,-0.12961 -0.15116,-0.82437 -0.14399,-0.6949 -0.33294,-1.60096 -0.64799,-2.58115 -0.31508,-0.98021 -0.70212,-2.06712 -1.68838,-3.18954 -0.98627,-1.12243 -3.1332,-2.1287 -5.01831,-1.77117 -1.06142,0.20129 -1.95781,0.66937 -2.75754,1.24917 l -1.45436,1.05479 -0.0468,1.79276 c -0.51968,19.23911 13.3613,34.29393 22.91714,45.81272 h 0.003 c 2.5943,3.12488 4.99839,5.34506 5.86791,7.02706 0.77459,1.49835 0.83182,2.7819 -0.6732,5.63027 -4.36177,1.81463 -9.14272,4.39095 -14.27372,6.50509 -5.65901,2.33169 -11.40185,3.8128 -16.11689,3.00595 -0.87248,-0.149 -1.05249,-0.32739 -1.30677,-0.61201 -0.25426,-0.2846 -0.56308,-0.85098 -0.8352,-1.76755 -0.54417,-1.83317 -0.59975,-4.76687 -2.36872,-7.80824 l -2.73956,-4.71232 -3.30115,4.3415 c -2.81602,3.70393 -3.61053,8.23927 -3.07072,12.35137 0.51278,3.90626 2.25124,7.49643 5.02191,10.11942 -9.01588,-0.75138 -17.46203,-2.13066 -22.67958,-4.87431 l -8.43823,-4.43873 3.33714,8.93145 c 3.09185,8.27583 11.17415,13.29515 20.4368,16.22487 9.26265,2.92974 20.05992,3.8807 30.01622,3.38394 l 3.48472,-0.17646 -0.003,-0.47878 0.60838,-0.0109 c 9.45591,-0.19648 16.82883,-3.81386 22.30877,-8.80182 3.4177,-3.11087 6.00787,-6.70756 8.30865,-10.36421 -3.48417,9.80078 -7.88959,18.90706 -13.33775,26.74389 -4.61385,6.63126 -8.22303,13.13262 -13.56093,16.88728 -14.51593,10.19274 -36.59047,19.1181 -54.40573,13.14335 -24.89011,-8.35312 -35.91542,-24.63352 -50.21906,-44.47715 l -7.01626,-9.73062 0.42842,11.98418 c 0.44449,12.50834 8.93001,22.06653 16.53088,30.44101 3.63682,4.0116 7.74781,8.34068 12.27573,12.12815 -3.46521,0.54576 -6.94226,1.84657 -9.27343,4.64032 -7.50324,-0.53414 -14.6225,-1.23675 -20.51959,-2.91596 -6.42456,-1.8294 -11.34595,-4.63837 -14.68409,-9.42102 -5.74569,-8.23785 -12.05306,-23.24061 -14.75253,-34.39372 -0.26074,-1.08629 -0.64395,-2.91995 -0.91439,-4.5503 -0.13553,-0.81646 -0.24377,-1.59013 -0.29879,-2.15996 -0.0549,-0.56984 0.0323,-1.10553 -0.0647,-0.57958 v -0.003 -0.003 c 0.10359,-0.56478 1.69497,-2.15838 3.95991,-4.59349 1.13248,-1.21759 2.37906,-2.75806 2.98434,-4.90671 0.60532,-2.14866 0.32211,-4.74346 -0.87477,-7.13146 l -0.99718,-1.98715 -2.22116,-0.0216 c -4.38744,-0.0415 -7.52002,2.20602 -9.53622,3.84114 -2.01618,1.63514 -3.0391,2.54409 -4.87068,2.72513 -5.98159,0.59154 -11.4249,-3.41185 -15.58771,-9.76299 -3.12217,-4.76343 -4.76632,-10.39763 -5.49711,-15.42209 l 6.48349,-4.25512 c 0.14236,-0.0935 0.11372,-0.12978 0.2448,-0.22321 -0.24919,2.1836 -0.35917,4.41586 -0.18721,6.62388 0.39405,5.05929 1.57842,9.97543 5.15511,13.22255 l 6.11269,5.54747 -0.0287,-8.25462 c -0.0144,-4.06379 -0.28385,-9.21914 0.1727,-12.92376 0.22837,-1.8523 0.69527,-3.28849 1.02237,-3.81233 0.32713,-0.52384 -0.1188,-0.28671 0.3348,-0.25918 -0.1253,-0.008 -0.17934,-0.16946 0.26279,0.38519 0.4421,0.55452 1.05749,1.67867 1.68117,3.01314 1.24737,2.6689 2.13386,6.38435 5.9975,8.58942 l 4.34509,2.48396 1.01881,-4.9031 c 0.53965,-2.59713 0.55631,-5.03214 0.35637,-7.37626 l 0.0326,0.003 c 2.88347,0.1542 6.39741,0.11675 9.80621,-0.60119 3.40881,-0.71786 7.02251,-2.10942 9.10423,-5.54389 l 0.5652,-0.9288 -0.0397,-1.08716 c -0.39992,-11.23963 -5.04955,-19.39252 -4.76991,-27.44947 0.28408,-8.16897 2.74632,-16.34013 4.34513,-24.94391 1.49535,-8.04724 1.99879,-16.64703 -1.2564,-25.53791 7.63518,-15.74421 29.45328,-29.57603 45.98191,-37.81726 6.0004,-2.99134 13.33512,-4.38543 21.2324,-4.46391 z m -14.3493,39.11323 -3.63236,0.003 v 0.43201 c -4.89257,0.92347 -9.48257,3.49356 -13.39533,6.72827 -4.87142,4.02726 -8.76683,8.98377 -10.5766,13.96051 h 0.003 c -0.65177,1.78817 -1.58343,4.45346 -1.62356,7.45188 -0.0201,1.49918 0.18284,3.17186 1.11598,4.7915 0.9331,1.61962 2.7278,2.96063 4.72668,3.44513 l 2.94113,0.71276 1.2348,-2.75751 c 2.53568,-5.65161 5.82327,-10.93163 10.0978,-14.18015 4.27452,-3.24847 9.44381,-4.82146 17.36246,-2.97712 l 2.56317,0.59759 1.37156,-2.24996 c 2.39099,-3.9318 1.35703,-8.69057 -1.04758,-11.3182 -2.40459,-2.62761 -5.56933,-3.99594 -8.62901,-4.45671 -0.83126,-0.1253 -1.67256,-0.18455 -2.51275,-0.18356 z m -65.39275,9.55421 c 1.82194,6.87989 1.05558,14.61421 -0.27721,23.06474 -1.45974,9.25604 -3.29879,19.21077 -1.27435,29.26384 -6.99009,-7.98667 -19.02743,-11.53865 -30.08461,-7.44825 -0.37954,-4.9853 -0.69538,-10.19867 -0.35281,-15.18092 0.46103,-6.70489 2.08014,-12.57756 5.48989,-16.32925 h 0.003 c 6.63586,-7.30629 15.56608,-11.9053 26.49547,-13.37016 z m 82.74081,15.80728 -2.71437,7.70386 c -1.86033,5.28202 -0.26977,10.8977 1.81076,16.10609 1.54439,3.86622 3.43359,6.92922 5.18391,9.90342 -1.25213,0.30702 -2.7363,0.40188 -4.7267,0.16551 -3.43789,-0.40798 -7.49408,-1.57214 -11.60619,-1.76397 l -2.11314,-0.0971 -1.13038,1.78557 c -2.11055,3.33448 -2.43821,7.37717 -0.63359,10.2022 1.80463,2.82503 4.70274,4.16136 7.70383,5.03632 6.00107,1.74952 13.1151,1.64405 18.28407,0.11868 2.20384,-0.64907 3.79305,-1.87381 5.37468,-3.20753 0.79082,-0.66689 1.51749,-1.36356 2.15635,-2.08798 0.63784,-0.72324 1.21381,-1.33988 1.67038,-2.63153 1.47298,-4.1483 0.66818,-8.07562 -0.98639,-10.63059 -1.65555,-2.55656 -3.78602,-4.06088 -4.67629,-4.92833 -4.34308,-4.23326 -5.56547,-10.95404 -9.68383,-18.50363 z m -102.39642,43.73197 c 3.38271,0.37065 5.34635,2.12011 7.15665,5.27391 0.0162,0.0276 0.0237,0.0694 0.0397,0.0971 -3.21364,-2.7896 -7.13918,-4.42141 -11.10938,-4.48189 -3.20152,-0.0488 -6.5037,1.04797 -9.02142,3.42352 -2.51773,2.37553 -4.1601,5.87322 -4.75551,10.19859 l -0.98279,7.11708 c -0.17413,-1.4204 -0.6828,-3.06582 -0.61918,-4.2695 0.49546,-9.43242 8.32763,-18.55815 19.29202,-17.35888 z m 101.5432,57.90128 -1.50836,0.003 c -2.76104,0.003 -4.76524,-0.0452 -6.79668,1.87556 -1.01568,0.96035 -1.598,2.68913 -1.47594,3.94192 0.12207,1.25281 0.58726,2.07494 1.02595,2.75757 0.87743,1.36523 1.89961,2.30522 2.79356,3.15353 0.89395,0.84831 1.73308,1.69029 1.70637,1.65596 3.01471,3.87445 7.11548,12.04065 14.75612,16.10251 5.9593,3.16499 13.68382,3.79021 21.00199,3.52433 7.31665,-0.26585 14.03371,-1.46244 18.34165,-3.21475 4.14444,-1.67928 6.43301,-5.27097 7.69662,-8.49943 l 1.9944,-5.09391 -5.46831,0.12961 c -11.08302,0.26489 -22.93504,0.88856 -32.52538,-0.77038 -9.59032,-1.65894 -16.42027,-5.11907 -19.66641,-13.26936 l -0.27719,-0.69836 z"
       sodipodi:nodetypes="ccccscssscccsccccscccssccssscccsscccccccccccscccscccccccccccccscccssscccccccccccccscccscccccsssscccccscscsscccsccccsccccsccccccccccsccsscccsscccscscccscccsscssccsccsccccscccccccsccsscccscccscscssccsccssccscccccsscsscscccccccscccccccssssccsccccsccc" />
  </g>
</svg>
