<?xml version="1.0" encoding="UTF-8" standalone="no"?>
<svg
   viewBox="0 0 448 512"
   version="1.1"
   id="svg4"
   sodipodi:docname="ff29-tex-file.svg"
   inkscape:version="1.1.1 (3bf5ae0d25, 2021-09-20)"
   xmlns:inkscape="http://www.inkscape.org/namespaces/inkscape"
   xmlns:sodipodi="http://sodipodi.sourceforge.net/DTD/sodipodi-0.dtd"
   xmlns="http://www.w3.org/2000/svg"
   xmlns:svg="http://www.w3.org/2000/svg"
   xmlns:rdf="http://www.w3.org/1999/02/22-rdf-syntax-ns#"
   xmlns:cc="http://creativecommons.org/ns#"
   xmlns:dc="http://purl.org/dc/elements/1.1/">
  <metadata
     id="metadata10">
    <rdf:RDF>
      <cc:Work
         rdf:about="">
        <dc:format>image/svg+xml</dc:format>
        <dc:type
           rdf:resource="http://purl.org/dc/dcmitype/StillImage" />
      </cc:Work>
    </rdf:RDF>
  </metadata>
  <defs
     id="defs8" />
  <sodipodi:namedview
     pagecolor="#ffffff"
     bordercolor="#666666"
     borderopacity="1"
     objecttolerance="10"
     gridtolerance="10"
     guidetolerance="10"
     inkscape:pageopacity="0"
     inkscape:pageshadow="2"
     inkscape:window-width="1280"
     inkscape:window-height="975"
     id="namedview6"
     showgrid="false"
     inkscape:zoom="0.4165991"
     inkscape:cx="24.003892"
     inkscape:cy="810.13137"
     inkscape:window-x="0"
     inkscape:window-y="23"
     inkscape:window-maximized="1"
     inkscape:current-layer="g3369"
     inkscape:pagecheckerboard="0" />
  <g
     id="path130">
    <g
       id="layer1"
       transform="matrix(2.8684296,0,0,2.8684296,-397.12005,-1414.5077)">
      <g
         id="g3363"
         transform="matrix(0.58826838,0,0,-0.58826838,191.06432,638.60215)">
        <g
           id="g3365"
           transform="translate(-131.809,509.294)">
          <g
             id="g3367">
            <g
               id="g3369"
               style="fill:#000000">
              <g
                 id="g3371"
                 style="fill:#000000" />
              <g
                 id="g3375"
                 style="fill:#000000" />
              <g
                 id="g3379"
                 style="fill:#000000" />
              <g
                 id="g3383"
                 style="fill:#000000" />
              <g
                 id="g3387"
                 style="fill:#000000" />
              <g
                 id="g3391"
                 style="fill:#000000" />
              <g
                 id="g3395"
                 style="fill:#000000" />
              <g
                 id="g3399"
                 style="fill:#000000" />
              <g
                 id="g3403"
                 style="fill:#000000" />
              <g
                 id="g3407"
                 style="fill:#000000" />
              <g
                 id="g3411"
                 style="fill:#000000" />
              <g
                 id="g3415"
                 style="fill:#000000" />
              <g
                 id="g3419"
                 style="fill:#000000" />
              <g
                 id="g3423"
                 style="fill:#000000" />
              <g
                 id="g3427"
                 style="fill:#000000" />
              <g
                 id="g3431"
                 style="fill:#000000" />
              <g
                 id="g3435"
                 style="fill:#000000" />
              <g
                 id="g3439"
                 style="fill:#000000" />
              <g
                 id="g3443"
                 style="fill:#000000" />
              <g
                 id="g3447"
                 style="fill:#000000" />
              <g
                 id="g3451"
                 style="fill:#000000" />
              <g
                 id="g3455"
                 style="fill:#000000" />
              <g
                 id="g3459"
                 style="fill:#000000" />
              <path
                 id="path3465"
                 style="fill:#000000;fill-rule:nonzero;stroke:#ffffff;stroke-width:0.796019;stroke-linecap:butt;stroke-linejoin:miter;stroke-miterlimit:4;stroke-dasharray:none"
                 d="m 167.31823,-342.41766 c 0.28424,-0.51208 0.57306,-0.99246 0.86088,-1.48146 -0.18176,0.0603 -0.36536,0.12745 -0.54673,0.1863 1.48218,-2.6704 3.01632,-5.02096 4.6009,-7.11629 -0.66172,0.0711 -1.33354,0.1209 -2.0293,0.11358 -1.90813,-0.02 -3.94745,-0.33711 -6.15728,-1.03282 0.44328,-0.37121 0.85191,-0.6919 1.27974,-1.04055 -0.3212,-0.0875 -0.63847,-0.16561 -0.96671,-0.26895 2.61593,-2.19057 4.94744,-3.95361 7.08432,-5.44193 -3.71237,0.72252 -7.70432,0.46075 -12.24846,-1.69531 0.48747,-0.30503 0.93613,-0.56781 1.40539,-0.85316 -0.35967,-0.14997 -0.71364,-0.28022 -1.08023,-0.45415 2.67218,-1.67217 5.03669,-3.01975 7.20777,-4.15444 -3.76722,0.19336 -7.67595,-0.62234 -11.86266,-3.3829 0.52539,-0.23412 0.97027,-0.40135 1.47484,-0.61836 -0.38611,-0.22473 -0.76992,-0.43347 -1.1607,-0.6911 2.33405,-1.04014 4.39513,-1.85406 6.34798,-2.57934 -3.54531,-0.55028 -7.05605,-2.05714 -10.50577,-5.32951 0.5134,-0.12734 0.94171,-0.20499 1.43518,-0.32077 -0.37361,-0.31314 -0.74776,-0.62029 -1.11993,-0.97329 2.46578,-0.61167 4.62641,-1.05024 6.66655,-1.42084 -2.48888,-0.91597 -4.93771,-2.4375 -7.3301,-4.84891 0.4924,-0.10643 0.9328,-0.18462 1.4065,-0.28107 -0.35903,-0.32146 -0.71768,-0.65635 -1.07474,-1.0163 1.73446,-0.37474 3.31351,-0.67186 4.82906,-0.93471 -1.92957,-1.20944 -3.77023,-2.85996 -5.48379,-5.13221 0.46609,-0.0361 0.8713,-0.0494 1.3205,-0.0793 -0.3366,-0.39075 -0.6701,-0.79595 -0.99753,-1.23014 1.89063,-0.14678 3.59661,-0.22306 5.22587,-0.27227 -1.95955,-1.26699 -3.81169,-2.99527 -5.51247,-5.3846 0.43825,-0.0218 0.83884,-0.0317 1.26211,-0.0484 -0.32194,-0.3946 -0.63963,-0.80664 -0.95127,-1.24447 2.81871,-0.14085 5.3017,-0.17492 7.55609,-0.13227 -2.23265,-1.38235 -4.31048,-3.33301 -6.16172,-6.13858 0.43257,-0.006 0.81461,0.003 1.23235,0.001 -0.31217,-0.41122 -0.61891,-0.84103 -0.91927,-1.29625 3.03705,-0.0444 5.66782,0.0302 8.04659,0.17855 -2.59649,-1.39656 -5.00611,-3.48501 -7.11628,-6.68309 0.43794,-0.006 0.83797,-0.002 1.26099,-0.003 -0.31575,-0.41613 -0.63084,-0.83567 -0.93473,-1.29629 2.99492,-0.0436 5.62337,0.0283 7.98158,0.17527 -2.64998,-1.94975 -4.91745,-4.66189 -6.5288,-8.67932 0.36195,0.0687 0.65116,0.14331 1.00198,0.21275 -0.23386,-0.48436 -0.46382,-0.97643 -0.67569,-1.50459 2.65313,0.5025 4.91141,1.03267 7.01486,1.57734 -1.81986,-1.84874 -3.366,-4.20525 -4.50499,-7.31468 0.32776,0.0724 0.61196,0.14827 0.93032,0.22155 -0.21732,-0.48906 -0.4228,-0.99789 -0.61728,-1.52886 1.89853,0.41969 3.59895,0.85589 5.20826,1.29518 -1.20131,-1.87109 -2.141,-4.09568 -2.73474,-6.80431 0.26113,0.096 0.47852,0.18875 0.733,0.28438 -0.14831,-0.51065 -0.28733,-1.0333 -0.40783,-1.58289 1.97995,0.72911 3.71613,1.43432 5.35265,2.1329 -1.24121,-1.96553 -2.19598,-4.30456 -2.74137,-7.16698 0.24136,0.0964 0.45534,0.19062 0.69113,0.2866 -0.1336,-0.51178 -0.25693,-1.03709 -0.36156,-1.58619 2.82659,1.13023 5.26035,2.22691 7.40399,3.28588 -1.44846,-2.18778 -2.52013,-4.82717 -3.03126,-8.1436 0.22086,0.0977 0.40893,0.19085 0.62501,0.28771 -0.11488,-0.51487 -0.2161,-1.04568 -0.30093,-1.5961 3.01836,1.33254 5.54406,2.5976 7.76661,3.81496 -1.78749,-2.35902 -3.11293,-5.2723 -3.69925,-9.07614 0.22933,0.10126 0.41404,0.19599 0.63824,0.29655 -0.1169,-0.52184 -0.23135,-1.04727 -0.31746,-1.60603 5.45936,2.4101 9.41097,4.60997 12.57584,6.66986 -0.84504,-2.41966 -1.23451,-5.17661 -0.95455,-8.43239 0.0916,0.0702 0.15968,0.13188 0.25021,0.20171 0.0129,-0.48775 0.0387,-0.98697 0.0827,-1.49909 5.68025,4.35795 9.33853,7.89554 12.09856,11.03928 0.003,-1.6048 0.20069,-3.31275 0.65585,-5.15206 0.0116,0.02 0.0236,0.0349 0.0351,0.0549 0.082,-0.44935 0.16473,-0.89897 0.27999,-1.36462 2.29415,3.94145 4.58788,6.36868 6.89912,8.16125 -0.47899,-1.38766 -0.27777,-2.73676 -0.27777,-4.17764 0.0905,0.0955 0.19153,0.19214 0.28329,0.28768 0.0155,-0.52348 0.044,-1.04708 0.044,-1.59054 3.83459,4.03831 8.72361,8.24459 12.02471,11.68187 -1.20315,-2.75447 -1.88891,-5.37419 -2.39524,-7.78976 -15.54839,-8.22292 -25.01528,-10.37201 -35.62883,-13.65938 0.70425,-0.25829 1.39233,-0.51736 2.08112,-0.77711 -0.59135,-0.17901 -1.17199,-0.34748 -1.76917,-0.5324 2.78027,-1.0197 5.69033,-2.02032 6.73048,-3.2087 -0.0668,-0.18546 -0.16729,-0.37419 -0.33728,-0.5699 l -4.86323,-4.85108 c 0.79423,0.24687 1.5922,0.51888 2.38642,0.75835 l -2.06675,-2.06678 c 2.88664,0.89738 5.82622,2.12753 8.4357,0.79474 -0.87441,-1.92784 -3.59286,-3.06695 -5.96882,-4.35067 2.30055,0.82893 3.72972,1.16406 4.74861,1.25327 -1.23088,-0.95764 -2.8875,-1.73319 -4.41681,-2.55947 4.55019,1.63951 5.74241,1.36826 6.92668,0.99098 -0.10116,-2.28886 -1.87586,-3.74645 -3.10402,-5.46951 0.92161,0.70072 1.87023,1.38597 2.83064,2.06346 -0.65344,-1.21509 -1.69274,-2.2375 -2.50218,-3.37297 12.20201,9.27783 28.11442,16.60275 39.32697,19.66346 15.77123,5.31115 36.1206,10.84814 41.65163,24.31288 l 5.52571,22.2009 c 6.48381,7.01721 12.44693,14.28157 15.27532,23.1257 18.05391,3.49289 32.66,2.24155 47.88936,1.85075 -0.28221,0.0471 -6.30238,1.06723 -9.45196,1.60048 3.04199,-0.10309 6.07588,-0.2169 9.13564,-0.29541 -1.3881,0.23127 -46.50165,7.87465 -46.50165,7.87465 -0.002,0.002 -0.003,0.003 -0.004,0.006 0.003,0.004 0.006,0.006 0.0108,0.0129 l -0.4905,0.61508 c -0.002,-0.003 -0.003,-0.003 -0.004,-0.006 -13.17597,17.0892 -32.42435,4.93188 -38.81989,-12.66954 -1.63417,-4.49757 -10.95765,-4.49927 -13.65937,0.013 -10.68306,23.00023 -43.12556,47.3177 -70.73406,56.27991 z m 106.51607,-47.07261 h 0.23699 c 1.87547,0.0136 3.73892,-0.40809 5.52678,-0.64042 0.23863,-0.0308 0.46979,-0.046 0.70435,-0.0685 -0.0847,-0.26983 -0.1957,-0.52575 -0.34168,-0.76164 -0.16039,0.0175 -0.32171,0.0266 -0.48171,0.0473 -1.7892,0.23248 -3.55769,0.60762 -5.26555,0.61617 -0.0577,-0.0901 -0.13175,-0.16604 -0.1951,-0.25131 -0.006,0.0143 -0.016,0.0264 -0.0221,0.0409 -0.0851,0.20163 -0.1513,0.41331 -0.19622,0.6327 -0.0187,0.0916 -0.0175,0.1901 -0.0285,0.2844 z" />
            </g>
          </g>
        </g>
      </g>
    </g>
  </g>
</svg>
